G04 EAGLE Gerber X2 export*
%TF.Part,Single*%
%TF.FileFunction,Copper,L1,Top,Mixed*%
%TF.FilePolarity,Positive*%
%TF.GenerationSoftware,Autodesk,EAGLE,8.7.0*%
%TF.CreationDate,2018-06-27T00:28:53Z*%
G75*
%MOMM*%
%FSLAX34Y34*%
%LPD*%
%AMOC8*
5,1,8,0,0,1.08239X$1,22.5*%
G01*
%ADD10C,1.879600*%
%ADD11C,1.350000*%
%ADD12C,2.032000*%
%ADD13C,0.635000*%
%ADD14C,0.254000*%


D10*
X177800Y78740D03*
X203200Y78740D03*
D11*
X170180Y325120D03*
X190500Y325120D03*
X210820Y325120D03*
D12*
X152400Y40640D03*
X228600Y40640D03*
D13*
X251460Y218440D03*
X334010Y165100D03*
X276860Y175260D03*
X320040Y123190D03*
D14*
X320675Y123825D02*
X320675Y133350D01*
X321469Y134144D02*
X336550Y149225D01*
X321469Y134144D02*
X320675Y133350D01*
X336550Y149225D02*
X336550Y165100D01*
X320675Y123825D02*
X320040Y123190D01*
X334010Y165100D02*
X336550Y165100D01*
X257969Y196056D02*
X250825Y203200D01*
X257969Y196056D02*
X276225Y177800D01*
X250825Y203200D02*
X250825Y215900D01*
X276225Y177800D02*
X276860Y175260D01*
X250825Y215900D02*
X251460Y218440D01*
X290513Y134938D02*
X320675Y134938D01*
X290513Y134938D02*
X282575Y142875D01*
X257175Y142875D01*
X234633Y160338D01*
X234633Y177800D01*
X257969Y196056D01*
X320675Y134938D02*
X321469Y134144D01*
D13*
X304800Y106680D03*
X322580Y233680D03*
D14*
X323850Y234950D01*
X320675Y107950D02*
X304800Y107950D01*
X320675Y107950D02*
X346075Y133350D01*
X346075Y214313D01*
X327025Y233363D01*
X323850Y233363D01*
X304800Y107950D02*
X304800Y106680D01*
X323850Y233363D02*
X322580Y233680D01*
D13*
X259080Y149860D03*
X337820Y213360D03*
X292100Y241300D03*
X289560Y205740D03*
X312420Y182880D03*
X275590Y224790D03*
X278130Y153670D03*
D14*
X312420Y182880D02*
X314325Y184150D01*
X277495Y224155D02*
X277019Y226219D01*
X292100Y241300D01*
X277495Y224155D02*
X275590Y224790D01*
X276225Y150813D02*
X260350Y150813D01*
X276225Y150813D02*
X279400Y153988D01*
X260350Y150813D02*
X259080Y149860D01*
X278130Y153670D02*
X279400Y153988D01*
X309563Y185738D02*
X312420Y182880D01*
X309563Y185738D02*
X289560Y205740D01*
X309563Y185738D02*
X336550Y212725D01*
X337820Y213360D01*
X284163Y152400D02*
X279400Y152400D01*
X284163Y152400D02*
X295275Y141288D01*
X322263Y141288D01*
X327025Y146050D01*
X327025Y168275D01*
X312420Y182880D01*
X279400Y152400D02*
X278130Y153670D01*
X277813Y217488D02*
X277813Y225425D01*
X277813Y217488D02*
X289560Y205740D01*
X277813Y225425D02*
X277019Y226219D01*
D13*
X246380Y175260D03*
X302260Y154940D03*
X318770Y148590D03*
X304800Y226060D03*
X330200Y254000D03*
D14*
X330200Y252413D02*
X310356Y232569D01*
X304800Y227013D01*
X330200Y252413D02*
X330200Y254000D01*
X304800Y227013D02*
X304800Y226060D01*
X309563Y147638D02*
X319088Y147638D01*
X309563Y147638D02*
X302260Y154940D01*
X318770Y148590D02*
X319088Y147638D01*
X268288Y174625D02*
X247650Y174625D01*
X283369Y159544D02*
X287338Y155575D01*
X283369Y159544D02*
X268288Y174625D01*
X287338Y155575D02*
X301625Y155575D01*
X247650Y174625D02*
X246380Y175260D01*
X301625Y155575D02*
X302260Y154940D01*
X310356Y232569D02*
X295275Y247650D01*
X287338Y247650D01*
X268288Y228600D01*
X268288Y204788D01*
X284163Y188913D01*
X284163Y160338D01*
X283369Y159544D01*
D13*
X287020Y129540D03*
X269240Y194310D03*
X304800Y261620D03*
X332740Y190500D03*
D14*
X304800Y260350D02*
X293688Y260350D01*
X263525Y230188D01*
X263525Y225425D02*
X263525Y200025D01*
X263525Y225425D02*
X263525Y230188D01*
X263525Y200025D02*
X269240Y194310D01*
X304800Y260350D02*
X304800Y261620D01*
X333375Y190500D02*
X333375Y177800D01*
X341313Y169863D01*
X341313Y134938D01*
X322263Y115888D01*
X303213Y115888D01*
X288925Y130175D01*
X332740Y190500D02*
X333375Y190500D01*
X288925Y130175D02*
X287020Y129540D01*
X263525Y225425D02*
X249238Y225425D01*
X227330Y211138D01*
X227330Y158750D01*
X263525Y130175D01*
X285750Y130175D01*
X287020Y129540D01*
D13*
X127000Y152400D03*
X91440Y238760D03*
D14*
X127000Y152400D02*
X141288Y152400D01*
X150495Y159068D01*
X150495Y209868D01*
X117158Y238125D01*
X92075Y238125D01*
X91440Y238760D01*
D13*
X129540Y203200D03*
X49530Y144780D03*
X66040Y200660D03*
X99060Y149860D03*
X50800Y127000D03*
D14*
X49530Y127000D01*
X66993Y200025D02*
X66040Y200660D01*
X49213Y144463D02*
X49213Y127000D01*
X100013Y150813D02*
X100013Y168275D01*
X68263Y200025D01*
X100013Y168275D02*
X129223Y202565D01*
X129540Y203200D01*
X95250Y146050D02*
X49213Y146050D01*
X95250Y146050D02*
X99060Y149860D01*
X49530Y144780D02*
X49213Y146050D01*
X99060Y149860D02*
X100013Y150813D01*
D13*
X59690Y231140D03*
X142240Y162560D03*
D14*
X60643Y230188D02*
X59690Y231140D01*
X125413Y161925D02*
X141288Y161925D01*
X125413Y161925D02*
X117475Y153988D01*
X117475Y144463D01*
X84138Y111125D01*
X44450Y111125D01*
X31750Y123825D01*
X31750Y206375D01*
X55563Y230188D01*
X60325Y230188D01*
X141288Y161925D02*
X142240Y162560D01*
D13*
X73660Y152400D03*
X58420Y251460D03*
D14*
X73343Y152400D02*
X73660Y152400D01*
X73025Y152400D02*
X73025Y171450D01*
X58738Y185738D01*
X58738Y220663D01*
X68263Y230188D01*
X68263Y241300D01*
X58738Y250825D01*
X58420Y251460D01*
D13*
X93980Y220980D03*
X48260Y175260D03*
X63500Y123190D03*
X119380Y208280D03*
D14*
X49530Y174625D02*
X48260Y175260D01*
X93980Y220980D02*
X127000Y220917D01*
X119380Y208280D01*
X47625Y174625D02*
X47625Y152400D01*
X41275Y146050D01*
X41275Y127000D01*
X47625Y120650D01*
X61913Y120650D01*
X63500Y122238D01*
X63500Y123190D01*
X107950Y169863D02*
X138113Y200025D01*
X107950Y169863D02*
X107950Y147638D01*
X84138Y123825D01*
X63500Y123825D01*
X63500Y123190D01*
X138113Y200025D02*
X138113Y209804D01*
X127000Y220917D01*
D13*
X48260Y213360D03*
X139700Y190500D03*
D14*
X139700Y182563D01*
X112713Y155575D01*
X112713Y146050D01*
X82550Y115888D01*
X46038Y115888D01*
X36513Y125413D01*
X36513Y201613D01*
X48260Y213360D01*
M02*
