G04 EAGLE Gerber X2 export*
%TF.Part,Single*%
%TF.FileFunction,Copper,L2,Bot,Mixed*%
%TF.FilePolarity,Positive*%
%TF.GenerationSoftware,Autodesk,EAGLE,8.7.0*%
%TF.CreationDate,2018-06-27T00:28:53Z*%
G75*
%MOMM*%
%FSLAX34Y34*%
%LPD*%
%AMOC8*
5,1,8,0,0,1.08239X$1,22.5*%
G01*
%ADD10C,1.879600*%
%ADD11C,1.350000*%
%ADD12R,3.960000X3.960000*%
%ADD13R,4.170000X4.170000*%
%ADD14C,2.032000*%
%ADD15C,0.254000*%
%ADD16C,0.635000*%


D10*
X177800Y78740D03*
X203200Y78740D03*
D11*
X170180Y325120D03*
X190500Y325120D03*
X210820Y325120D03*
D12*
X91440Y190500D03*
D13*
X91440Y113650D03*
X91440Y267350D03*
D14*
X152400Y40640D03*
X228600Y40640D03*
D15*
X203200Y78740D02*
X203200Y86360D01*
X172720Y116840D01*
X129540Y116840D01*
X116840Y129540D01*
X116840Y180340D01*
X99060Y190500D01*
X91440Y190500D01*
D16*
X251460Y218440D03*
X334010Y165100D03*
X276860Y175260D03*
X320040Y123190D03*
D15*
X91440Y113650D02*
X57150Y154290D01*
X57150Y219710D02*
X38100Y233680D01*
X38100Y256540D01*
X48910Y267350D02*
X91440Y267350D01*
X57150Y219710D02*
X57150Y154290D01*
X38100Y256540D02*
X48910Y267350D01*
X170180Y347980D02*
X190500Y325120D01*
X170180Y347980D02*
X132080Y347980D01*
X91440Y307340D02*
X91440Y267350D01*
X91440Y307340D02*
X132080Y347980D01*
D16*
X304800Y106680D03*
X322580Y233680D03*
X259080Y149860D03*
X337820Y213360D03*
X292100Y241300D03*
X289560Y205740D03*
X312420Y182880D03*
X275590Y224790D03*
X278130Y153670D03*
X246380Y175260D03*
X302260Y154940D03*
X318770Y148590D03*
X304800Y226060D03*
X330200Y254000D03*
X287020Y129540D03*
X269240Y194310D03*
X304800Y261620D03*
X332740Y190500D03*
X127000Y152400D03*
X91440Y238760D03*
X129540Y203200D03*
X49530Y144780D03*
X66040Y200660D03*
X99060Y149860D03*
X50800Y127000D03*
X59690Y231140D03*
X142240Y162560D03*
X73660Y152400D03*
X58420Y251460D03*
X93980Y220980D03*
X48260Y175260D03*
X63500Y123190D03*
X119380Y208280D03*
X48260Y213360D03*
X139700Y190500D03*
D15*
X228600Y243840D02*
X228600Y40640D01*
X228600Y243840D02*
X170180Y289560D01*
X170180Y325120D01*
X152400Y55880D02*
X152400Y40640D01*
X152400Y55880D02*
X177800Y78740D01*
M02*
