M48
;GenerationSoftware,Autodesk,EAGLE,8.7.0*%
;CreationDate,2018-06-27T00:28:53Z*%
FMAT,2
ICI,OFF
METRIC,TZ,000.000
T5C0.381
T4C0.813
T3C0.900
T2C1.016
T1C1.651
%
G90
M71
T1
X19050Y36068
T2
X22860Y4064
X15240Y4064
T3
X17018Y32512
X19050Y32512
X21082Y32512
T4
X20320Y7874
X17780Y7874
T5
X29210Y24130
X28956Y20574
X31242Y18288
X27559Y22479
X27813Y15367
X24638Y17526
X30226Y15494
X31877Y14859
X30480Y22606
X33020Y25400
X28702Y12954
X26924Y19431
X30480Y26162
X33274Y19050
X12700Y15240
X32258Y23368
X12954Y20320
X4953Y14478
X6604Y20066
X9906Y14986
X5080Y12700
X5969Y23114
X14224Y16256
X7366Y15240
X5842Y25146
X9398Y22098
X4826Y17526
X6350Y12319
X25146Y21844
X4826Y21336
X13970Y19050
X33401Y16510
X27686Y17526
X9144Y23876
X32004Y12319
X30480Y10668
X25908Y14986
X33782Y21336
X11938Y20828
M30