G04 EAGLE Gerber X2 export*
%TF.Part,Single*%
%TF.FileFunction,Legend,Top,1*%
%TF.FilePolarity,Positive*%
%TF.GenerationSoftware,Autodesk,EAGLE,8.7.0*%
%TF.CreationDate,2018-06-27T00:28:53Z*%
G75*
%MOMM*%
%FSLAX34Y34*%
%LPD*%
%AMOC8*
5,1,8,0,0,1.08239X$1,22.5*%
G01*
%ADD10C,0.152400*%
%ADD11C,0.101600*%
%ADD12C,0.127000*%
%ADD13C,0.254000*%


D10*
X134940Y266192D02*
X134940Y282448D01*
X139455Y282448D02*
X130424Y282448D01*
X144839Y277029D02*
X144839Y266192D01*
X144388Y281545D02*
X144388Y282448D01*
X145291Y282448D01*
X145291Y281545D01*
X144388Y281545D01*
X151648Y277029D02*
X151648Y266192D01*
X151648Y277029D02*
X156163Y277029D01*
X156267Y277027D01*
X156370Y277021D01*
X156474Y277011D01*
X156577Y276997D01*
X156679Y276979D01*
X156780Y276958D01*
X156881Y276932D01*
X156980Y276903D01*
X157079Y276870D01*
X157176Y276833D01*
X157271Y276792D01*
X157365Y276748D01*
X157457Y276700D01*
X157547Y276649D01*
X157636Y276594D01*
X157722Y276536D01*
X157805Y276474D01*
X157887Y276410D01*
X157965Y276342D01*
X158041Y276272D01*
X158115Y276199D01*
X158185Y276122D01*
X158253Y276044D01*
X158317Y275962D01*
X158379Y275879D01*
X158437Y275793D01*
X158492Y275704D01*
X158543Y275614D01*
X158591Y275522D01*
X158635Y275428D01*
X158676Y275333D01*
X158713Y275236D01*
X158746Y275137D01*
X158775Y275038D01*
X158801Y274937D01*
X158822Y274836D01*
X158840Y274734D01*
X158854Y274631D01*
X158864Y274527D01*
X158870Y274424D01*
X158872Y274320D01*
X158873Y274320D02*
X158873Y266192D01*
X166406Y266192D02*
X166406Y282448D01*
X173631Y277029D02*
X166406Y271611D01*
X169567Y273868D02*
X173631Y266192D01*
X181972Y266192D02*
X186488Y266192D01*
X181972Y266192D02*
X181871Y266194D01*
X181770Y266200D01*
X181669Y266209D01*
X181568Y266222D01*
X181468Y266239D01*
X181369Y266260D01*
X181271Y266284D01*
X181174Y266312D01*
X181077Y266344D01*
X180982Y266379D01*
X180889Y266418D01*
X180797Y266460D01*
X180706Y266506D01*
X180618Y266555D01*
X180531Y266607D01*
X180446Y266663D01*
X180363Y266721D01*
X180283Y266783D01*
X180205Y266848D01*
X180129Y266915D01*
X180056Y266985D01*
X179986Y267058D01*
X179919Y267134D01*
X179854Y267212D01*
X179792Y267292D01*
X179734Y267375D01*
X179678Y267460D01*
X179626Y267547D01*
X179577Y267635D01*
X179531Y267726D01*
X179489Y267818D01*
X179450Y267911D01*
X179415Y268006D01*
X179383Y268103D01*
X179355Y268200D01*
X179331Y268298D01*
X179310Y268397D01*
X179293Y268497D01*
X179280Y268598D01*
X179271Y268699D01*
X179265Y268800D01*
X179263Y268901D01*
X179263Y273417D01*
X179265Y273536D01*
X179271Y273656D01*
X179281Y273775D01*
X179295Y273893D01*
X179312Y274012D01*
X179334Y274129D01*
X179359Y274246D01*
X179389Y274361D01*
X179422Y274476D01*
X179459Y274590D01*
X179499Y274702D01*
X179544Y274813D01*
X179592Y274922D01*
X179643Y275030D01*
X179698Y275136D01*
X179757Y275240D01*
X179819Y275342D01*
X179884Y275442D01*
X179953Y275540D01*
X180025Y275636D01*
X180100Y275729D01*
X180177Y275819D01*
X180258Y275907D01*
X180342Y275992D01*
X180429Y276074D01*
X180518Y276154D01*
X180610Y276230D01*
X180704Y276304D01*
X180801Y276374D01*
X180899Y276441D01*
X181000Y276505D01*
X181104Y276565D01*
X181209Y276622D01*
X181316Y276675D01*
X181424Y276725D01*
X181534Y276771D01*
X181646Y276813D01*
X181759Y276852D01*
X181873Y276887D01*
X181988Y276918D01*
X182105Y276946D01*
X182222Y276969D01*
X182339Y276989D01*
X182458Y277005D01*
X182577Y277017D01*
X182696Y277025D01*
X182815Y277029D01*
X182935Y277029D01*
X183054Y277025D01*
X183173Y277017D01*
X183292Y277005D01*
X183411Y276989D01*
X183528Y276969D01*
X183645Y276946D01*
X183762Y276918D01*
X183877Y276887D01*
X183991Y276852D01*
X184104Y276813D01*
X184216Y276771D01*
X184326Y276725D01*
X184434Y276675D01*
X184541Y276622D01*
X184646Y276565D01*
X184750Y276505D01*
X184851Y276441D01*
X184949Y276374D01*
X185046Y276304D01*
X185140Y276230D01*
X185232Y276154D01*
X185321Y276074D01*
X185408Y275992D01*
X185492Y275907D01*
X185573Y275819D01*
X185650Y275729D01*
X185725Y275636D01*
X185797Y275540D01*
X185866Y275442D01*
X185931Y275342D01*
X185993Y275240D01*
X186052Y275136D01*
X186107Y275030D01*
X186158Y274922D01*
X186206Y274813D01*
X186251Y274702D01*
X186291Y274590D01*
X186328Y274476D01*
X186361Y274361D01*
X186391Y274246D01*
X186416Y274129D01*
X186438Y274012D01*
X186455Y273893D01*
X186469Y273775D01*
X186479Y273656D01*
X186485Y273536D01*
X186487Y273417D01*
X186488Y273417D02*
X186488Y271611D01*
X179263Y271611D01*
X193416Y266192D02*
X193416Y277029D01*
X198835Y277029D01*
X198835Y275223D01*
X207364Y282448D02*
X207364Y266192D01*
X202849Y282448D02*
X211880Y282448D01*
X220008Y266192D02*
X224524Y266192D01*
X220008Y266192D02*
X219907Y266194D01*
X219806Y266200D01*
X219705Y266209D01*
X219604Y266222D01*
X219504Y266239D01*
X219405Y266260D01*
X219307Y266284D01*
X219210Y266312D01*
X219113Y266344D01*
X219018Y266379D01*
X218925Y266418D01*
X218833Y266460D01*
X218742Y266506D01*
X218654Y266555D01*
X218567Y266607D01*
X218482Y266663D01*
X218399Y266721D01*
X218319Y266783D01*
X218241Y266848D01*
X218165Y266915D01*
X218092Y266985D01*
X218022Y267058D01*
X217955Y267134D01*
X217890Y267212D01*
X217828Y267292D01*
X217770Y267375D01*
X217714Y267460D01*
X217662Y267547D01*
X217613Y267635D01*
X217567Y267726D01*
X217525Y267818D01*
X217486Y267911D01*
X217451Y268006D01*
X217419Y268103D01*
X217391Y268200D01*
X217367Y268298D01*
X217346Y268397D01*
X217329Y268497D01*
X217316Y268598D01*
X217307Y268699D01*
X217301Y268800D01*
X217299Y268901D01*
X217299Y273417D01*
X217301Y273536D01*
X217307Y273656D01*
X217317Y273775D01*
X217331Y273893D01*
X217348Y274012D01*
X217370Y274129D01*
X217395Y274246D01*
X217425Y274361D01*
X217458Y274476D01*
X217495Y274590D01*
X217535Y274702D01*
X217580Y274813D01*
X217628Y274922D01*
X217679Y275030D01*
X217734Y275136D01*
X217793Y275240D01*
X217855Y275342D01*
X217920Y275442D01*
X217989Y275540D01*
X218061Y275636D01*
X218136Y275729D01*
X218213Y275819D01*
X218294Y275907D01*
X218378Y275992D01*
X218465Y276074D01*
X218554Y276154D01*
X218646Y276230D01*
X218740Y276304D01*
X218837Y276374D01*
X218935Y276441D01*
X219036Y276505D01*
X219140Y276565D01*
X219245Y276622D01*
X219352Y276675D01*
X219460Y276725D01*
X219570Y276771D01*
X219682Y276813D01*
X219795Y276852D01*
X219909Y276887D01*
X220024Y276918D01*
X220141Y276946D01*
X220258Y276969D01*
X220375Y276989D01*
X220494Y277005D01*
X220613Y277017D01*
X220732Y277025D01*
X220851Y277029D01*
X220971Y277029D01*
X221090Y277025D01*
X221209Y277017D01*
X221328Y277005D01*
X221447Y276989D01*
X221564Y276969D01*
X221681Y276946D01*
X221798Y276918D01*
X221913Y276887D01*
X222027Y276852D01*
X222140Y276813D01*
X222252Y276771D01*
X222362Y276725D01*
X222470Y276675D01*
X222577Y276622D01*
X222682Y276565D01*
X222786Y276505D01*
X222887Y276441D01*
X222985Y276374D01*
X223082Y276304D01*
X223176Y276230D01*
X223268Y276154D01*
X223357Y276074D01*
X223444Y275992D01*
X223528Y275907D01*
X223609Y275819D01*
X223686Y275729D01*
X223761Y275636D01*
X223833Y275540D01*
X223902Y275442D01*
X223967Y275342D01*
X224029Y275240D01*
X224088Y275136D01*
X224143Y275030D01*
X224194Y274922D01*
X224242Y274813D01*
X224287Y274702D01*
X224327Y274590D01*
X224364Y274476D01*
X224397Y274361D01*
X224427Y274246D01*
X224452Y274129D01*
X224474Y274012D01*
X224491Y273893D01*
X224505Y273775D01*
X224515Y273656D01*
X224521Y273536D01*
X224523Y273417D01*
X224524Y273417D02*
X224524Y271611D01*
X217299Y271611D01*
X233573Y266192D02*
X237185Y266192D01*
X233573Y266192D02*
X233472Y266194D01*
X233371Y266200D01*
X233270Y266209D01*
X233169Y266222D01*
X233069Y266239D01*
X232970Y266260D01*
X232872Y266284D01*
X232775Y266312D01*
X232678Y266344D01*
X232583Y266379D01*
X232490Y266418D01*
X232398Y266460D01*
X232307Y266506D01*
X232219Y266555D01*
X232132Y266607D01*
X232047Y266663D01*
X231964Y266721D01*
X231884Y266783D01*
X231806Y266848D01*
X231730Y266915D01*
X231657Y266985D01*
X231587Y267058D01*
X231520Y267134D01*
X231455Y267212D01*
X231393Y267292D01*
X231335Y267375D01*
X231279Y267460D01*
X231227Y267547D01*
X231178Y267635D01*
X231132Y267726D01*
X231090Y267818D01*
X231051Y267911D01*
X231016Y268006D01*
X230984Y268103D01*
X230956Y268200D01*
X230932Y268298D01*
X230911Y268397D01*
X230894Y268497D01*
X230881Y268598D01*
X230872Y268699D01*
X230866Y268800D01*
X230864Y268901D01*
X230864Y274320D01*
X230866Y274421D01*
X230872Y274522D01*
X230881Y274623D01*
X230894Y274724D01*
X230911Y274824D01*
X230932Y274923D01*
X230956Y275021D01*
X230984Y275118D01*
X231016Y275215D01*
X231051Y275310D01*
X231090Y275403D01*
X231132Y275495D01*
X231178Y275586D01*
X231227Y275675D01*
X231279Y275761D01*
X231335Y275846D01*
X231393Y275929D01*
X231455Y276009D01*
X231520Y276087D01*
X231587Y276163D01*
X231657Y276236D01*
X231730Y276306D01*
X231806Y276373D01*
X231884Y276438D01*
X231964Y276500D01*
X232047Y276558D01*
X232132Y276614D01*
X232219Y276666D01*
X232307Y276715D01*
X232398Y276761D01*
X232490Y276803D01*
X232583Y276842D01*
X232678Y276877D01*
X232775Y276909D01*
X232872Y276937D01*
X232970Y276961D01*
X233069Y276982D01*
X233169Y276999D01*
X233270Y277012D01*
X233371Y277021D01*
X233472Y277027D01*
X233573Y277029D01*
X237185Y277029D01*
X243351Y282448D02*
X243351Y266192D01*
X243351Y277029D02*
X247867Y277029D01*
X247971Y277027D01*
X248074Y277021D01*
X248178Y277011D01*
X248281Y276997D01*
X248383Y276979D01*
X248484Y276958D01*
X248585Y276932D01*
X248684Y276903D01*
X248783Y276870D01*
X248880Y276833D01*
X248975Y276792D01*
X249069Y276748D01*
X249161Y276700D01*
X249251Y276649D01*
X249340Y276594D01*
X249426Y276536D01*
X249509Y276474D01*
X249591Y276410D01*
X249669Y276342D01*
X249745Y276272D01*
X249819Y276199D01*
X249889Y276122D01*
X249957Y276044D01*
X250021Y275962D01*
X250083Y275879D01*
X250141Y275793D01*
X250196Y275704D01*
X250247Y275614D01*
X250295Y275522D01*
X250339Y275428D01*
X250380Y275333D01*
X250417Y275236D01*
X250450Y275137D01*
X250479Y275038D01*
X250505Y274937D01*
X250526Y274836D01*
X250544Y274734D01*
X250558Y274631D01*
X250568Y274527D01*
X250574Y274424D01*
X250576Y274320D01*
X250576Y266192D01*
D11*
X112282Y254325D02*
X108388Y259842D01*
X112282Y254325D02*
X116177Y259842D01*
X112282Y254325D02*
X112282Y248158D01*
X120354Y250754D02*
X120354Y253351D01*
X120356Y253452D01*
X120362Y253552D01*
X120372Y253652D01*
X120385Y253752D01*
X120403Y253851D01*
X120424Y253950D01*
X120449Y254047D01*
X120478Y254144D01*
X120511Y254239D01*
X120547Y254333D01*
X120587Y254425D01*
X120630Y254516D01*
X120677Y254605D01*
X120727Y254692D01*
X120781Y254778D01*
X120838Y254861D01*
X120898Y254941D01*
X120961Y255020D01*
X121028Y255096D01*
X121097Y255169D01*
X121169Y255239D01*
X121243Y255307D01*
X121320Y255372D01*
X121400Y255433D01*
X121482Y255492D01*
X121566Y255547D01*
X121652Y255599D01*
X121740Y255648D01*
X121830Y255693D01*
X121922Y255735D01*
X122015Y255773D01*
X122110Y255807D01*
X122205Y255838D01*
X122302Y255865D01*
X122400Y255888D01*
X122499Y255908D01*
X122599Y255923D01*
X122699Y255935D01*
X122799Y255943D01*
X122900Y255947D01*
X123000Y255947D01*
X123101Y255943D01*
X123201Y255935D01*
X123301Y255923D01*
X123401Y255908D01*
X123500Y255888D01*
X123598Y255865D01*
X123695Y255838D01*
X123790Y255807D01*
X123885Y255773D01*
X123978Y255735D01*
X124070Y255693D01*
X124160Y255648D01*
X124248Y255599D01*
X124334Y255547D01*
X124418Y255492D01*
X124500Y255433D01*
X124580Y255372D01*
X124657Y255307D01*
X124731Y255239D01*
X124803Y255169D01*
X124872Y255096D01*
X124939Y255020D01*
X125002Y254941D01*
X125062Y254861D01*
X125119Y254778D01*
X125173Y254692D01*
X125223Y254605D01*
X125270Y254516D01*
X125313Y254425D01*
X125353Y254333D01*
X125389Y254239D01*
X125422Y254144D01*
X125451Y254047D01*
X125476Y253950D01*
X125497Y253851D01*
X125515Y253752D01*
X125528Y253652D01*
X125538Y253552D01*
X125544Y253452D01*
X125546Y253351D01*
X125547Y253351D02*
X125547Y250754D01*
X125546Y250754D02*
X125544Y250653D01*
X125538Y250553D01*
X125528Y250453D01*
X125515Y250353D01*
X125497Y250254D01*
X125476Y250155D01*
X125451Y250058D01*
X125422Y249961D01*
X125389Y249866D01*
X125353Y249772D01*
X125313Y249680D01*
X125270Y249589D01*
X125223Y249500D01*
X125173Y249413D01*
X125119Y249327D01*
X125062Y249244D01*
X125002Y249164D01*
X124939Y249085D01*
X124872Y249009D01*
X124803Y248936D01*
X124731Y248866D01*
X124657Y248798D01*
X124580Y248733D01*
X124500Y248672D01*
X124418Y248613D01*
X124334Y248558D01*
X124248Y248506D01*
X124160Y248457D01*
X124070Y248412D01*
X123978Y248370D01*
X123885Y248332D01*
X123790Y248298D01*
X123695Y248267D01*
X123598Y248240D01*
X123500Y248217D01*
X123401Y248197D01*
X123301Y248182D01*
X123201Y248170D01*
X123101Y248162D01*
X123000Y248158D01*
X122900Y248158D01*
X122799Y248162D01*
X122699Y248170D01*
X122599Y248182D01*
X122499Y248197D01*
X122400Y248217D01*
X122302Y248240D01*
X122205Y248267D01*
X122110Y248298D01*
X122015Y248332D01*
X121922Y248370D01*
X121830Y248412D01*
X121740Y248457D01*
X121652Y248506D01*
X121566Y248558D01*
X121482Y248613D01*
X121400Y248672D01*
X121320Y248733D01*
X121243Y248798D01*
X121169Y248866D01*
X121097Y248936D01*
X121028Y249009D01*
X120961Y249085D01*
X120898Y249164D01*
X120838Y249244D01*
X120781Y249327D01*
X120727Y249413D01*
X120677Y249500D01*
X120630Y249589D01*
X120587Y249680D01*
X120547Y249772D01*
X120511Y249866D01*
X120478Y249961D01*
X120449Y250058D01*
X120424Y250155D01*
X120403Y250254D01*
X120385Y250353D01*
X120372Y250453D01*
X120362Y250553D01*
X120356Y250653D01*
X120354Y250754D01*
X130641Y250105D02*
X130641Y255947D01*
X130641Y250105D02*
X130643Y250018D01*
X130649Y249930D01*
X130659Y249844D01*
X130672Y249757D01*
X130690Y249672D01*
X130711Y249587D01*
X130736Y249503D01*
X130765Y249421D01*
X130798Y249340D01*
X130834Y249260D01*
X130873Y249182D01*
X130917Y249106D01*
X130963Y249032D01*
X131013Y248961D01*
X131066Y248891D01*
X131122Y248824D01*
X131181Y248760D01*
X131243Y248698D01*
X131307Y248639D01*
X131374Y248583D01*
X131444Y248530D01*
X131515Y248480D01*
X131589Y248434D01*
X131665Y248390D01*
X131743Y248351D01*
X131823Y248315D01*
X131904Y248282D01*
X131986Y248253D01*
X132070Y248228D01*
X132155Y248207D01*
X132240Y248189D01*
X132327Y248176D01*
X132413Y248166D01*
X132501Y248160D01*
X132588Y248158D01*
X135834Y248158D01*
X135834Y255947D01*
X141375Y255947D02*
X141375Y248158D01*
X141375Y255947D02*
X145270Y255947D01*
X145270Y254649D01*
X155998Y252702D02*
X159244Y251404D01*
X155998Y252701D02*
X155923Y252734D01*
X155849Y252770D01*
X155777Y252809D01*
X155707Y252852D01*
X155640Y252898D01*
X155574Y252948D01*
X155512Y253000D01*
X155451Y253056D01*
X155394Y253114D01*
X155339Y253175D01*
X155288Y253239D01*
X155240Y253305D01*
X155195Y253374D01*
X155153Y253444D01*
X155115Y253517D01*
X155080Y253591D01*
X155049Y253667D01*
X155022Y253744D01*
X154999Y253823D01*
X154979Y253902D01*
X154964Y253983D01*
X154952Y254064D01*
X154944Y254146D01*
X154940Y254227D01*
X154941Y254309D01*
X154945Y254391D01*
X154953Y254473D01*
X154965Y254554D01*
X154981Y254634D01*
X155001Y254714D01*
X155025Y254792D01*
X155053Y254869D01*
X155084Y254945D01*
X155119Y255019D01*
X155157Y255091D01*
X155199Y255162D01*
X155245Y255230D01*
X155293Y255296D01*
X155345Y255359D01*
X155400Y255420D01*
X155458Y255478D01*
X155518Y255534D01*
X155581Y255586D01*
X155647Y255635D01*
X155715Y255681D01*
X155785Y255723D01*
X155857Y255763D01*
X155931Y255798D01*
X156006Y255830D01*
X156083Y255858D01*
X156161Y255882D01*
X156241Y255903D01*
X156321Y255920D01*
X156402Y255932D01*
X156483Y255941D01*
X156565Y255946D01*
X156647Y255947D01*
X156824Y255943D01*
X157001Y255934D01*
X157178Y255920D01*
X157355Y255903D01*
X157530Y255881D01*
X157706Y255856D01*
X157880Y255825D01*
X158054Y255791D01*
X158227Y255753D01*
X158399Y255710D01*
X158570Y255663D01*
X158740Y255613D01*
X158909Y255558D01*
X159076Y255499D01*
X159241Y255436D01*
X159406Y255369D01*
X159568Y255298D01*
X159244Y251404D02*
X159319Y251371D01*
X159393Y251335D01*
X159465Y251296D01*
X159535Y251253D01*
X159602Y251207D01*
X159668Y251157D01*
X159730Y251105D01*
X159791Y251049D01*
X159848Y250991D01*
X159903Y250930D01*
X159954Y250866D01*
X160002Y250800D01*
X160047Y250731D01*
X160089Y250661D01*
X160127Y250588D01*
X160162Y250514D01*
X160193Y250438D01*
X160220Y250361D01*
X160243Y250282D01*
X160263Y250203D01*
X160278Y250122D01*
X160290Y250041D01*
X160298Y249959D01*
X160302Y249878D01*
X160301Y249796D01*
X160297Y249714D01*
X160289Y249632D01*
X160277Y249551D01*
X160261Y249471D01*
X160241Y249391D01*
X160217Y249313D01*
X160189Y249236D01*
X160158Y249160D01*
X160123Y249086D01*
X160085Y249014D01*
X160043Y248943D01*
X159997Y248875D01*
X159949Y248809D01*
X159897Y248746D01*
X159842Y248685D01*
X159784Y248627D01*
X159724Y248571D01*
X159661Y248519D01*
X159595Y248470D01*
X159527Y248424D01*
X159457Y248382D01*
X159385Y248342D01*
X159311Y248307D01*
X159236Y248275D01*
X159159Y248247D01*
X159081Y248223D01*
X159001Y248202D01*
X158921Y248185D01*
X158840Y248173D01*
X158759Y248164D01*
X158677Y248159D01*
X158595Y248158D01*
X158335Y248165D01*
X158075Y248178D01*
X157815Y248197D01*
X157556Y248222D01*
X157297Y248254D01*
X157040Y248291D01*
X156783Y248335D01*
X156527Y248384D01*
X156273Y248440D01*
X156020Y248501D01*
X155769Y248569D01*
X155519Y248643D01*
X155271Y248722D01*
X155025Y248807D01*
X165371Y244263D02*
X165371Y255947D01*
X168616Y255947D01*
X168703Y255945D01*
X168791Y255939D01*
X168877Y255929D01*
X168964Y255916D01*
X169049Y255898D01*
X169134Y255877D01*
X169218Y255852D01*
X169300Y255823D01*
X169381Y255790D01*
X169461Y255754D01*
X169539Y255715D01*
X169615Y255671D01*
X169689Y255625D01*
X169760Y255575D01*
X169830Y255522D01*
X169897Y255466D01*
X169961Y255407D01*
X170023Y255346D01*
X170082Y255281D01*
X170138Y255214D01*
X170191Y255144D01*
X170241Y255073D01*
X170287Y254999D01*
X170331Y254923D01*
X170370Y254845D01*
X170406Y254765D01*
X170439Y254684D01*
X170468Y254602D01*
X170493Y254518D01*
X170514Y254433D01*
X170532Y254348D01*
X170545Y254261D01*
X170555Y254175D01*
X170561Y254087D01*
X170563Y254000D01*
X170564Y254000D02*
X170564Y250105D01*
X170563Y250105D02*
X170561Y250018D01*
X170555Y249930D01*
X170545Y249844D01*
X170532Y249757D01*
X170514Y249672D01*
X170493Y249587D01*
X170468Y249503D01*
X170439Y249421D01*
X170406Y249340D01*
X170370Y249260D01*
X170331Y249182D01*
X170287Y249106D01*
X170241Y249032D01*
X170191Y248961D01*
X170138Y248891D01*
X170082Y248824D01*
X170023Y248760D01*
X169961Y248698D01*
X169897Y248639D01*
X169830Y248583D01*
X169760Y248530D01*
X169689Y248480D01*
X169615Y248434D01*
X169539Y248390D01*
X169461Y248351D01*
X169381Y248315D01*
X169300Y248282D01*
X169218Y248253D01*
X169134Y248228D01*
X169049Y248207D01*
X168964Y248189D01*
X168877Y248176D01*
X168791Y248166D01*
X168703Y248160D01*
X168616Y248158D01*
X165371Y248158D01*
X177431Y252702D02*
X180352Y252702D01*
X177431Y252702D02*
X177337Y252700D01*
X177243Y252694D01*
X177150Y252685D01*
X177057Y252671D01*
X176965Y252654D01*
X176873Y252632D01*
X176783Y252608D01*
X176693Y252579D01*
X176605Y252547D01*
X176518Y252511D01*
X176433Y252471D01*
X176350Y252428D01*
X176268Y252382D01*
X176188Y252332D01*
X176111Y252279D01*
X176036Y252223D01*
X175963Y252164D01*
X175892Y252102D01*
X175824Y252037D01*
X175759Y251969D01*
X175697Y251898D01*
X175638Y251825D01*
X175582Y251750D01*
X175529Y251673D01*
X175479Y251593D01*
X175433Y251511D01*
X175390Y251428D01*
X175350Y251343D01*
X175314Y251256D01*
X175282Y251168D01*
X175253Y251078D01*
X175229Y250988D01*
X175207Y250896D01*
X175190Y250804D01*
X175176Y250711D01*
X175167Y250618D01*
X175161Y250524D01*
X175159Y250430D01*
X175161Y250336D01*
X175167Y250242D01*
X175176Y250149D01*
X175190Y250056D01*
X175207Y249964D01*
X175229Y249872D01*
X175253Y249782D01*
X175282Y249692D01*
X175314Y249604D01*
X175350Y249517D01*
X175390Y249432D01*
X175433Y249349D01*
X175479Y249267D01*
X175529Y249187D01*
X175582Y249110D01*
X175638Y249035D01*
X175697Y248962D01*
X175759Y248891D01*
X175824Y248823D01*
X175892Y248758D01*
X175963Y248696D01*
X176036Y248637D01*
X176111Y248581D01*
X176188Y248528D01*
X176268Y248478D01*
X176350Y248432D01*
X176433Y248389D01*
X176518Y248349D01*
X176605Y248313D01*
X176693Y248281D01*
X176783Y248252D01*
X176873Y248228D01*
X176965Y248206D01*
X177057Y248189D01*
X177150Y248175D01*
X177243Y248166D01*
X177337Y248160D01*
X177431Y248158D01*
X180352Y248158D01*
X180352Y254000D01*
X180351Y254000D02*
X180349Y254087D01*
X180343Y254175D01*
X180333Y254261D01*
X180320Y254348D01*
X180302Y254433D01*
X180281Y254518D01*
X180256Y254602D01*
X180227Y254684D01*
X180194Y254765D01*
X180158Y254845D01*
X180119Y254923D01*
X180075Y254999D01*
X180029Y255073D01*
X179979Y255144D01*
X179926Y255214D01*
X179870Y255281D01*
X179811Y255345D01*
X179749Y255407D01*
X179685Y255466D01*
X179618Y255522D01*
X179548Y255575D01*
X179477Y255625D01*
X179403Y255671D01*
X179327Y255715D01*
X179249Y255754D01*
X179169Y255790D01*
X179088Y255823D01*
X179006Y255852D01*
X178922Y255877D01*
X178837Y255898D01*
X178752Y255916D01*
X178665Y255929D01*
X178579Y255939D01*
X178491Y255945D01*
X178404Y255947D01*
X175808Y255947D01*
X187465Y248158D02*
X190062Y248158D01*
X187465Y248158D02*
X187378Y248160D01*
X187290Y248166D01*
X187204Y248176D01*
X187117Y248189D01*
X187032Y248207D01*
X186947Y248228D01*
X186863Y248253D01*
X186781Y248282D01*
X186700Y248315D01*
X186620Y248351D01*
X186542Y248390D01*
X186466Y248434D01*
X186392Y248480D01*
X186321Y248530D01*
X186251Y248583D01*
X186184Y248639D01*
X186120Y248698D01*
X186058Y248760D01*
X185999Y248824D01*
X185943Y248891D01*
X185890Y248961D01*
X185840Y249032D01*
X185794Y249106D01*
X185750Y249182D01*
X185711Y249260D01*
X185675Y249340D01*
X185642Y249421D01*
X185613Y249503D01*
X185588Y249587D01*
X185567Y249672D01*
X185549Y249757D01*
X185536Y249844D01*
X185526Y249930D01*
X185520Y250018D01*
X185518Y250105D01*
X185518Y254000D01*
X185520Y254087D01*
X185526Y254175D01*
X185536Y254261D01*
X185549Y254348D01*
X185567Y254433D01*
X185588Y254518D01*
X185613Y254602D01*
X185642Y254684D01*
X185675Y254765D01*
X185711Y254845D01*
X185750Y254923D01*
X185794Y254999D01*
X185840Y255073D01*
X185890Y255144D01*
X185943Y255214D01*
X185999Y255281D01*
X186058Y255345D01*
X186120Y255407D01*
X186184Y255466D01*
X186251Y255522D01*
X186321Y255575D01*
X186392Y255625D01*
X186466Y255671D01*
X186542Y255715D01*
X186620Y255754D01*
X186700Y255790D01*
X186781Y255823D01*
X186863Y255852D01*
X186947Y255877D01*
X187032Y255898D01*
X187117Y255916D01*
X187204Y255929D01*
X187290Y255939D01*
X187378Y255945D01*
X187465Y255947D01*
X190062Y255947D01*
X196215Y248158D02*
X199461Y248158D01*
X196215Y248158D02*
X196128Y248160D01*
X196040Y248166D01*
X195954Y248176D01*
X195867Y248189D01*
X195782Y248207D01*
X195697Y248228D01*
X195613Y248253D01*
X195531Y248282D01*
X195450Y248315D01*
X195370Y248351D01*
X195292Y248390D01*
X195216Y248434D01*
X195142Y248480D01*
X195071Y248530D01*
X195001Y248583D01*
X194934Y248639D01*
X194870Y248698D01*
X194808Y248760D01*
X194749Y248824D01*
X194693Y248891D01*
X194640Y248961D01*
X194590Y249032D01*
X194544Y249106D01*
X194500Y249182D01*
X194461Y249260D01*
X194425Y249340D01*
X194392Y249421D01*
X194363Y249503D01*
X194338Y249587D01*
X194317Y249672D01*
X194299Y249757D01*
X194286Y249844D01*
X194276Y249930D01*
X194270Y250018D01*
X194268Y250105D01*
X194268Y253351D01*
X194270Y253452D01*
X194276Y253552D01*
X194286Y253652D01*
X194299Y253752D01*
X194317Y253851D01*
X194338Y253950D01*
X194363Y254047D01*
X194392Y254144D01*
X194425Y254239D01*
X194461Y254333D01*
X194501Y254425D01*
X194544Y254516D01*
X194591Y254605D01*
X194641Y254692D01*
X194695Y254778D01*
X194752Y254861D01*
X194812Y254941D01*
X194875Y255020D01*
X194942Y255096D01*
X195011Y255169D01*
X195083Y255239D01*
X195157Y255307D01*
X195234Y255372D01*
X195314Y255433D01*
X195396Y255492D01*
X195480Y255547D01*
X195566Y255599D01*
X195654Y255648D01*
X195744Y255693D01*
X195836Y255735D01*
X195929Y255773D01*
X196024Y255807D01*
X196119Y255838D01*
X196216Y255865D01*
X196314Y255888D01*
X196413Y255908D01*
X196513Y255923D01*
X196613Y255935D01*
X196713Y255943D01*
X196814Y255947D01*
X196914Y255947D01*
X197015Y255943D01*
X197115Y255935D01*
X197215Y255923D01*
X197315Y255908D01*
X197414Y255888D01*
X197512Y255865D01*
X197609Y255838D01*
X197704Y255807D01*
X197799Y255773D01*
X197892Y255735D01*
X197984Y255693D01*
X198074Y255648D01*
X198162Y255599D01*
X198248Y255547D01*
X198332Y255492D01*
X198414Y255433D01*
X198494Y255372D01*
X198571Y255307D01*
X198645Y255239D01*
X198717Y255169D01*
X198786Y255096D01*
X198853Y255020D01*
X198916Y254941D01*
X198976Y254861D01*
X199033Y254778D01*
X199087Y254692D01*
X199137Y254605D01*
X199184Y254516D01*
X199227Y254425D01*
X199267Y254333D01*
X199303Y254239D01*
X199336Y254144D01*
X199365Y254047D01*
X199390Y253950D01*
X199411Y253851D01*
X199429Y253752D01*
X199442Y253652D01*
X199452Y253552D01*
X199458Y253452D01*
X199460Y253351D01*
X199461Y253351D02*
X199461Y252053D01*
X194268Y252053D01*
X209302Y255947D02*
X213197Y255947D01*
X210601Y259842D02*
X210601Y250105D01*
X210603Y250018D01*
X210609Y249930D01*
X210619Y249844D01*
X210632Y249757D01*
X210650Y249672D01*
X210671Y249587D01*
X210696Y249503D01*
X210725Y249421D01*
X210758Y249340D01*
X210794Y249260D01*
X210833Y249182D01*
X210877Y249106D01*
X210923Y249032D01*
X210973Y248961D01*
X211026Y248891D01*
X211082Y248824D01*
X211141Y248760D01*
X211203Y248698D01*
X211267Y248639D01*
X211334Y248583D01*
X211404Y248530D01*
X211475Y248480D01*
X211549Y248434D01*
X211625Y248390D01*
X211703Y248351D01*
X211783Y248315D01*
X211864Y248282D01*
X211946Y248253D01*
X212030Y248228D01*
X212115Y248207D01*
X212200Y248189D01*
X212287Y248176D01*
X212373Y248166D01*
X212461Y248160D01*
X212548Y248158D01*
X213197Y248158D01*
X217509Y250754D02*
X217509Y253351D01*
X217511Y253452D01*
X217517Y253552D01*
X217527Y253652D01*
X217540Y253752D01*
X217558Y253851D01*
X217579Y253950D01*
X217604Y254047D01*
X217633Y254144D01*
X217666Y254239D01*
X217702Y254333D01*
X217742Y254425D01*
X217785Y254516D01*
X217832Y254605D01*
X217882Y254692D01*
X217936Y254778D01*
X217993Y254861D01*
X218053Y254941D01*
X218116Y255020D01*
X218183Y255096D01*
X218252Y255169D01*
X218324Y255239D01*
X218398Y255307D01*
X218475Y255372D01*
X218555Y255433D01*
X218637Y255492D01*
X218721Y255547D01*
X218807Y255599D01*
X218895Y255648D01*
X218985Y255693D01*
X219077Y255735D01*
X219170Y255773D01*
X219265Y255807D01*
X219360Y255838D01*
X219457Y255865D01*
X219555Y255888D01*
X219654Y255908D01*
X219754Y255923D01*
X219854Y255935D01*
X219954Y255943D01*
X220055Y255947D01*
X220155Y255947D01*
X220256Y255943D01*
X220356Y255935D01*
X220456Y255923D01*
X220556Y255908D01*
X220655Y255888D01*
X220753Y255865D01*
X220850Y255838D01*
X220945Y255807D01*
X221040Y255773D01*
X221133Y255735D01*
X221225Y255693D01*
X221315Y255648D01*
X221403Y255599D01*
X221489Y255547D01*
X221573Y255492D01*
X221655Y255433D01*
X221735Y255372D01*
X221812Y255307D01*
X221886Y255239D01*
X221958Y255169D01*
X222027Y255096D01*
X222094Y255020D01*
X222157Y254941D01*
X222217Y254861D01*
X222274Y254778D01*
X222328Y254692D01*
X222378Y254605D01*
X222425Y254516D01*
X222468Y254425D01*
X222508Y254333D01*
X222544Y254239D01*
X222577Y254144D01*
X222606Y254047D01*
X222631Y253950D01*
X222652Y253851D01*
X222670Y253752D01*
X222683Y253652D01*
X222693Y253552D01*
X222699Y253452D01*
X222701Y253351D01*
X222702Y253351D02*
X222702Y250754D01*
X222701Y250754D02*
X222699Y250653D01*
X222693Y250553D01*
X222683Y250453D01*
X222670Y250353D01*
X222652Y250254D01*
X222631Y250155D01*
X222606Y250058D01*
X222577Y249961D01*
X222544Y249866D01*
X222508Y249772D01*
X222468Y249680D01*
X222425Y249589D01*
X222378Y249500D01*
X222328Y249413D01*
X222274Y249327D01*
X222217Y249244D01*
X222157Y249164D01*
X222094Y249085D01*
X222027Y249009D01*
X221958Y248936D01*
X221886Y248866D01*
X221812Y248798D01*
X221735Y248733D01*
X221655Y248672D01*
X221573Y248613D01*
X221489Y248558D01*
X221403Y248506D01*
X221315Y248457D01*
X221225Y248412D01*
X221133Y248370D01*
X221040Y248332D01*
X220945Y248298D01*
X220850Y248267D01*
X220753Y248240D01*
X220655Y248217D01*
X220556Y248197D01*
X220456Y248182D01*
X220356Y248170D01*
X220256Y248162D01*
X220155Y248158D01*
X220055Y248158D01*
X219954Y248162D01*
X219854Y248170D01*
X219754Y248182D01*
X219654Y248197D01*
X219555Y248217D01*
X219457Y248240D01*
X219360Y248267D01*
X219265Y248298D01*
X219170Y248332D01*
X219077Y248370D01*
X218985Y248412D01*
X218895Y248457D01*
X218807Y248506D01*
X218721Y248558D01*
X218637Y248613D01*
X218555Y248672D01*
X218475Y248733D01*
X218398Y248798D01*
X218324Y248866D01*
X218252Y248936D01*
X218183Y249009D01*
X218116Y249085D01*
X218053Y249164D01*
X217993Y249244D01*
X217936Y249327D01*
X217882Y249413D01*
X217832Y249500D01*
X217785Y249589D01*
X217742Y249680D01*
X217702Y249772D01*
X217666Y249866D01*
X217633Y249961D01*
X217604Y250058D01*
X217579Y250155D01*
X217558Y250254D01*
X217540Y250353D01*
X217527Y250453D01*
X217517Y250553D01*
X217511Y250653D01*
X217509Y250754D01*
X234117Y248158D02*
X234117Y255947D01*
X239959Y255947D01*
X240046Y255945D01*
X240134Y255939D01*
X240220Y255929D01*
X240307Y255916D01*
X240392Y255898D01*
X240477Y255877D01*
X240561Y255852D01*
X240643Y255823D01*
X240724Y255790D01*
X240804Y255754D01*
X240882Y255715D01*
X240958Y255671D01*
X241032Y255625D01*
X241103Y255575D01*
X241173Y255522D01*
X241240Y255466D01*
X241304Y255407D01*
X241366Y255345D01*
X241425Y255281D01*
X241481Y255214D01*
X241534Y255144D01*
X241584Y255073D01*
X241630Y254999D01*
X241674Y254923D01*
X241713Y254845D01*
X241749Y254765D01*
X241782Y254684D01*
X241811Y254602D01*
X241836Y254518D01*
X241857Y254433D01*
X241875Y254348D01*
X241888Y254261D01*
X241898Y254175D01*
X241904Y254087D01*
X241906Y254000D01*
X241907Y254000D02*
X241907Y248158D01*
X238012Y248158D02*
X238012Y255947D01*
X249440Y252702D02*
X252361Y252702D01*
X249440Y252702D02*
X249346Y252700D01*
X249252Y252694D01*
X249159Y252685D01*
X249066Y252671D01*
X248974Y252654D01*
X248882Y252632D01*
X248792Y252608D01*
X248702Y252579D01*
X248614Y252547D01*
X248527Y252511D01*
X248442Y252471D01*
X248359Y252428D01*
X248277Y252382D01*
X248197Y252332D01*
X248120Y252279D01*
X248045Y252223D01*
X247972Y252164D01*
X247901Y252102D01*
X247833Y252037D01*
X247768Y251969D01*
X247706Y251898D01*
X247647Y251825D01*
X247591Y251750D01*
X247538Y251673D01*
X247488Y251593D01*
X247442Y251511D01*
X247399Y251428D01*
X247359Y251343D01*
X247323Y251256D01*
X247291Y251168D01*
X247262Y251078D01*
X247238Y250988D01*
X247216Y250896D01*
X247199Y250804D01*
X247185Y250711D01*
X247176Y250618D01*
X247170Y250524D01*
X247168Y250430D01*
X247170Y250336D01*
X247176Y250242D01*
X247185Y250149D01*
X247199Y250056D01*
X247216Y249964D01*
X247238Y249872D01*
X247262Y249782D01*
X247291Y249692D01*
X247323Y249604D01*
X247359Y249517D01*
X247399Y249432D01*
X247442Y249349D01*
X247488Y249267D01*
X247538Y249187D01*
X247591Y249110D01*
X247647Y249035D01*
X247706Y248962D01*
X247768Y248891D01*
X247833Y248823D01*
X247901Y248758D01*
X247972Y248696D01*
X248045Y248637D01*
X248120Y248581D01*
X248197Y248528D01*
X248277Y248478D01*
X248359Y248432D01*
X248442Y248389D01*
X248527Y248349D01*
X248614Y248313D01*
X248702Y248281D01*
X248792Y248252D01*
X248882Y248228D01*
X248974Y248206D01*
X249066Y248189D01*
X249159Y248175D01*
X249252Y248166D01*
X249346Y248160D01*
X249440Y248158D01*
X252361Y248158D01*
X252361Y254000D01*
X252360Y254000D02*
X252358Y254087D01*
X252352Y254175D01*
X252342Y254261D01*
X252329Y254348D01*
X252311Y254433D01*
X252290Y254518D01*
X252265Y254602D01*
X252236Y254684D01*
X252203Y254765D01*
X252167Y254845D01*
X252128Y254923D01*
X252084Y254999D01*
X252038Y255073D01*
X251988Y255144D01*
X251935Y255214D01*
X251879Y255281D01*
X251820Y255345D01*
X251758Y255407D01*
X251694Y255466D01*
X251627Y255522D01*
X251557Y255575D01*
X251486Y255625D01*
X251412Y255671D01*
X251336Y255715D01*
X251258Y255754D01*
X251178Y255790D01*
X251097Y255823D01*
X251015Y255852D01*
X250931Y255877D01*
X250846Y255898D01*
X250761Y255916D01*
X250674Y255929D01*
X250588Y255939D01*
X250500Y255945D01*
X250413Y255947D01*
X247817Y255947D01*
X258030Y259842D02*
X258030Y248158D01*
X258030Y252053D02*
X263223Y255947D01*
X260302Y253675D02*
X263223Y248158D01*
X269367Y248158D02*
X272612Y248158D01*
X269367Y248158D02*
X269280Y248160D01*
X269192Y248166D01*
X269106Y248176D01*
X269019Y248189D01*
X268934Y248207D01*
X268849Y248228D01*
X268765Y248253D01*
X268683Y248282D01*
X268602Y248315D01*
X268522Y248351D01*
X268444Y248390D01*
X268368Y248434D01*
X268294Y248480D01*
X268223Y248530D01*
X268153Y248583D01*
X268086Y248639D01*
X268022Y248698D01*
X267960Y248760D01*
X267901Y248824D01*
X267845Y248891D01*
X267792Y248961D01*
X267742Y249032D01*
X267696Y249106D01*
X267652Y249182D01*
X267613Y249260D01*
X267577Y249340D01*
X267544Y249421D01*
X267515Y249503D01*
X267490Y249587D01*
X267469Y249672D01*
X267451Y249757D01*
X267438Y249844D01*
X267428Y249930D01*
X267422Y250018D01*
X267420Y250105D01*
X267420Y253351D01*
X267422Y253452D01*
X267428Y253552D01*
X267438Y253652D01*
X267451Y253752D01*
X267469Y253851D01*
X267490Y253950D01*
X267515Y254047D01*
X267544Y254144D01*
X267577Y254239D01*
X267613Y254333D01*
X267653Y254425D01*
X267696Y254516D01*
X267743Y254605D01*
X267793Y254692D01*
X267847Y254778D01*
X267904Y254861D01*
X267964Y254941D01*
X268027Y255020D01*
X268094Y255096D01*
X268163Y255169D01*
X268235Y255239D01*
X268309Y255307D01*
X268386Y255372D01*
X268466Y255433D01*
X268548Y255492D01*
X268632Y255547D01*
X268718Y255599D01*
X268806Y255648D01*
X268896Y255693D01*
X268988Y255735D01*
X269081Y255773D01*
X269176Y255807D01*
X269271Y255838D01*
X269368Y255865D01*
X269466Y255888D01*
X269565Y255908D01*
X269665Y255923D01*
X269765Y255935D01*
X269865Y255943D01*
X269966Y255947D01*
X270066Y255947D01*
X270167Y255943D01*
X270267Y255935D01*
X270367Y255923D01*
X270467Y255908D01*
X270566Y255888D01*
X270664Y255865D01*
X270761Y255838D01*
X270856Y255807D01*
X270951Y255773D01*
X271044Y255735D01*
X271136Y255693D01*
X271226Y255648D01*
X271314Y255599D01*
X271400Y255547D01*
X271484Y255492D01*
X271566Y255433D01*
X271646Y255372D01*
X271723Y255307D01*
X271797Y255239D01*
X271869Y255169D01*
X271938Y255096D01*
X272005Y255020D01*
X272068Y254941D01*
X272128Y254861D01*
X272185Y254778D01*
X272239Y254692D01*
X272289Y254605D01*
X272336Y254516D01*
X272379Y254425D01*
X272419Y254333D01*
X272455Y254239D01*
X272488Y254144D01*
X272517Y254047D01*
X272542Y253950D01*
X272563Y253851D01*
X272581Y253752D01*
X272594Y253652D01*
X272604Y253552D01*
X272610Y253452D01*
X272612Y253351D01*
X272612Y252053D01*
X267420Y252053D01*
X119246Y125772D02*
X121193Y117983D01*
X123141Y123176D01*
X125088Y117983D01*
X127035Y125772D01*
X131438Y125772D02*
X133385Y117983D01*
X135333Y123176D01*
X137280Y117983D01*
X139227Y125772D01*
X143630Y125772D02*
X145577Y117983D01*
X147525Y123176D01*
X149472Y117983D01*
X151419Y125772D01*
X155582Y118632D02*
X155582Y117983D01*
X155582Y118632D02*
X156231Y118632D01*
X156231Y117983D01*
X155582Y117983D01*
X159582Y125772D02*
X163477Y125772D01*
X160880Y129667D02*
X160880Y119930D01*
X160881Y119930D02*
X160883Y119843D01*
X160889Y119755D01*
X160899Y119669D01*
X160912Y119582D01*
X160930Y119497D01*
X160951Y119412D01*
X160976Y119328D01*
X161005Y119246D01*
X161038Y119165D01*
X161074Y119085D01*
X161113Y119007D01*
X161157Y118931D01*
X161203Y118857D01*
X161253Y118786D01*
X161306Y118716D01*
X161362Y118649D01*
X161421Y118585D01*
X161483Y118523D01*
X161547Y118464D01*
X161614Y118408D01*
X161684Y118355D01*
X161755Y118305D01*
X161829Y118259D01*
X161905Y118215D01*
X161983Y118176D01*
X162063Y118140D01*
X162144Y118107D01*
X162226Y118078D01*
X162310Y118053D01*
X162395Y118032D01*
X162480Y118014D01*
X162567Y118001D01*
X162653Y117991D01*
X162741Y117985D01*
X162828Y117983D01*
X163477Y117983D01*
X167718Y117983D02*
X167718Y125772D01*
X167393Y129018D02*
X167393Y129667D01*
X168042Y129667D01*
X168042Y129018D01*
X167393Y129018D01*
X172741Y125772D02*
X172741Y117983D01*
X172741Y125772D02*
X175987Y125772D01*
X176074Y125770D01*
X176162Y125764D01*
X176248Y125754D01*
X176335Y125741D01*
X176420Y125723D01*
X176505Y125702D01*
X176589Y125677D01*
X176671Y125648D01*
X176752Y125615D01*
X176832Y125579D01*
X176910Y125540D01*
X176986Y125496D01*
X177060Y125450D01*
X177131Y125400D01*
X177201Y125347D01*
X177268Y125291D01*
X177332Y125232D01*
X177394Y125171D01*
X177453Y125106D01*
X177509Y125039D01*
X177562Y124969D01*
X177612Y124898D01*
X177658Y124824D01*
X177702Y124748D01*
X177741Y124670D01*
X177777Y124590D01*
X177810Y124509D01*
X177839Y124427D01*
X177864Y124343D01*
X177885Y124258D01*
X177903Y124173D01*
X177916Y124086D01*
X177926Y124000D01*
X177932Y123912D01*
X177934Y123825D01*
X177934Y117983D01*
X183545Y117983D02*
X183545Y129667D01*
X188738Y125772D02*
X183545Y121878D01*
X185817Y123500D02*
X188738Y117983D01*
X194882Y117983D02*
X198127Y117983D01*
X194882Y117983D02*
X194795Y117985D01*
X194707Y117991D01*
X194621Y118001D01*
X194534Y118014D01*
X194449Y118032D01*
X194364Y118053D01*
X194280Y118078D01*
X194198Y118107D01*
X194117Y118140D01*
X194037Y118176D01*
X193959Y118215D01*
X193883Y118259D01*
X193809Y118305D01*
X193738Y118355D01*
X193668Y118408D01*
X193601Y118464D01*
X193537Y118523D01*
X193475Y118585D01*
X193416Y118649D01*
X193360Y118716D01*
X193307Y118786D01*
X193257Y118857D01*
X193211Y118931D01*
X193167Y119007D01*
X193128Y119085D01*
X193092Y119165D01*
X193059Y119246D01*
X193030Y119328D01*
X193005Y119412D01*
X192984Y119497D01*
X192966Y119582D01*
X192953Y119669D01*
X192943Y119755D01*
X192937Y119843D01*
X192935Y119930D01*
X192934Y119930D02*
X192934Y123176D01*
X192935Y123176D02*
X192937Y123277D01*
X192943Y123377D01*
X192953Y123477D01*
X192966Y123577D01*
X192984Y123676D01*
X193005Y123775D01*
X193030Y123872D01*
X193059Y123969D01*
X193092Y124064D01*
X193128Y124158D01*
X193168Y124250D01*
X193211Y124341D01*
X193258Y124430D01*
X193308Y124517D01*
X193362Y124603D01*
X193419Y124686D01*
X193479Y124766D01*
X193542Y124845D01*
X193609Y124921D01*
X193678Y124994D01*
X193750Y125064D01*
X193824Y125132D01*
X193901Y125197D01*
X193981Y125258D01*
X194063Y125317D01*
X194147Y125372D01*
X194233Y125424D01*
X194321Y125473D01*
X194411Y125518D01*
X194503Y125560D01*
X194596Y125598D01*
X194691Y125632D01*
X194786Y125663D01*
X194883Y125690D01*
X194981Y125713D01*
X195080Y125733D01*
X195180Y125748D01*
X195280Y125760D01*
X195380Y125768D01*
X195481Y125772D01*
X195581Y125772D01*
X195682Y125768D01*
X195782Y125760D01*
X195882Y125748D01*
X195982Y125733D01*
X196081Y125713D01*
X196179Y125690D01*
X196276Y125663D01*
X196371Y125632D01*
X196466Y125598D01*
X196559Y125560D01*
X196651Y125518D01*
X196741Y125473D01*
X196829Y125424D01*
X196915Y125372D01*
X196999Y125317D01*
X197081Y125258D01*
X197161Y125197D01*
X197238Y125132D01*
X197312Y125064D01*
X197384Y124994D01*
X197453Y124921D01*
X197520Y124845D01*
X197583Y124766D01*
X197643Y124686D01*
X197700Y124603D01*
X197754Y124517D01*
X197804Y124430D01*
X197851Y124341D01*
X197894Y124250D01*
X197934Y124158D01*
X197970Y124064D01*
X198003Y123969D01*
X198032Y123872D01*
X198057Y123775D01*
X198078Y123676D01*
X198096Y123577D01*
X198109Y123477D01*
X198119Y123377D01*
X198125Y123277D01*
X198127Y123176D01*
X198127Y121878D01*
X192934Y121878D01*
X203288Y117983D02*
X203288Y125772D01*
X207182Y125772D01*
X207182Y124474D01*
X209874Y125772D02*
X213769Y125772D01*
X211172Y129667D02*
X211172Y119930D01*
X211174Y119843D01*
X211180Y119755D01*
X211190Y119669D01*
X211203Y119582D01*
X211221Y119497D01*
X211242Y119412D01*
X211267Y119328D01*
X211296Y119246D01*
X211329Y119165D01*
X211365Y119085D01*
X211404Y119007D01*
X211448Y118931D01*
X211494Y118857D01*
X211544Y118786D01*
X211597Y118716D01*
X211653Y118649D01*
X211712Y118585D01*
X211774Y118523D01*
X211838Y118464D01*
X211905Y118408D01*
X211975Y118355D01*
X212046Y118305D01*
X212120Y118259D01*
X212196Y118215D01*
X212274Y118176D01*
X212354Y118140D01*
X212435Y118107D01*
X212517Y118078D01*
X212601Y118053D01*
X212686Y118032D01*
X212771Y118014D01*
X212858Y118001D01*
X212944Y117991D01*
X213032Y117985D01*
X213119Y117983D01*
X213769Y117983D01*
X220027Y117983D02*
X223273Y117983D01*
X220027Y117983D02*
X219940Y117985D01*
X219852Y117991D01*
X219766Y118001D01*
X219679Y118014D01*
X219594Y118032D01*
X219509Y118053D01*
X219425Y118078D01*
X219343Y118107D01*
X219262Y118140D01*
X219182Y118176D01*
X219104Y118215D01*
X219028Y118259D01*
X218954Y118305D01*
X218883Y118355D01*
X218813Y118408D01*
X218746Y118464D01*
X218682Y118523D01*
X218620Y118585D01*
X218561Y118649D01*
X218505Y118716D01*
X218452Y118786D01*
X218402Y118857D01*
X218356Y118931D01*
X218312Y119007D01*
X218273Y119085D01*
X218237Y119165D01*
X218204Y119246D01*
X218175Y119328D01*
X218150Y119412D01*
X218129Y119497D01*
X218111Y119582D01*
X218098Y119669D01*
X218088Y119755D01*
X218082Y119843D01*
X218080Y119930D01*
X218080Y123176D01*
X218081Y123176D02*
X218083Y123277D01*
X218089Y123377D01*
X218099Y123477D01*
X218112Y123577D01*
X218130Y123676D01*
X218151Y123775D01*
X218176Y123872D01*
X218205Y123969D01*
X218238Y124064D01*
X218274Y124158D01*
X218314Y124250D01*
X218357Y124341D01*
X218404Y124430D01*
X218454Y124517D01*
X218508Y124603D01*
X218565Y124686D01*
X218625Y124766D01*
X218688Y124845D01*
X218755Y124921D01*
X218824Y124994D01*
X218896Y125064D01*
X218970Y125132D01*
X219047Y125197D01*
X219127Y125258D01*
X219209Y125317D01*
X219293Y125372D01*
X219379Y125424D01*
X219467Y125473D01*
X219557Y125518D01*
X219649Y125560D01*
X219742Y125598D01*
X219837Y125632D01*
X219932Y125663D01*
X220029Y125690D01*
X220127Y125713D01*
X220226Y125733D01*
X220326Y125748D01*
X220426Y125760D01*
X220526Y125768D01*
X220627Y125772D01*
X220727Y125772D01*
X220828Y125768D01*
X220928Y125760D01*
X221028Y125748D01*
X221128Y125733D01*
X221227Y125713D01*
X221325Y125690D01*
X221422Y125663D01*
X221517Y125632D01*
X221612Y125598D01*
X221705Y125560D01*
X221797Y125518D01*
X221887Y125473D01*
X221975Y125424D01*
X222061Y125372D01*
X222145Y125317D01*
X222227Y125258D01*
X222307Y125197D01*
X222384Y125132D01*
X222458Y125064D01*
X222530Y124994D01*
X222599Y124921D01*
X222666Y124845D01*
X222729Y124766D01*
X222789Y124686D01*
X222846Y124603D01*
X222900Y124517D01*
X222950Y124430D01*
X222997Y124341D01*
X223040Y124250D01*
X223080Y124158D01*
X223116Y124064D01*
X223149Y123969D01*
X223178Y123872D01*
X223203Y123775D01*
X223224Y123676D01*
X223242Y123577D01*
X223255Y123477D01*
X223265Y123377D01*
X223271Y123277D01*
X223273Y123176D01*
X223273Y121878D01*
X218080Y121878D01*
X229947Y117983D02*
X232543Y117983D01*
X229947Y117983D02*
X229860Y117985D01*
X229772Y117991D01*
X229686Y118001D01*
X229599Y118014D01*
X229514Y118032D01*
X229429Y118053D01*
X229345Y118078D01*
X229263Y118107D01*
X229182Y118140D01*
X229102Y118176D01*
X229024Y118215D01*
X228948Y118259D01*
X228874Y118305D01*
X228803Y118355D01*
X228733Y118408D01*
X228666Y118464D01*
X228602Y118523D01*
X228540Y118585D01*
X228481Y118649D01*
X228425Y118716D01*
X228372Y118786D01*
X228322Y118857D01*
X228276Y118931D01*
X228232Y119007D01*
X228193Y119085D01*
X228157Y119165D01*
X228124Y119246D01*
X228095Y119328D01*
X228070Y119412D01*
X228049Y119497D01*
X228031Y119582D01*
X228018Y119669D01*
X228008Y119755D01*
X228002Y119843D01*
X228000Y119930D01*
X227999Y119930D02*
X227999Y123825D01*
X228000Y123825D02*
X228002Y123912D01*
X228008Y124000D01*
X228018Y124086D01*
X228031Y124173D01*
X228049Y124258D01*
X228070Y124343D01*
X228095Y124427D01*
X228124Y124509D01*
X228157Y124590D01*
X228193Y124670D01*
X228232Y124748D01*
X228276Y124824D01*
X228322Y124898D01*
X228372Y124969D01*
X228425Y125039D01*
X228481Y125106D01*
X228540Y125170D01*
X228602Y125232D01*
X228666Y125291D01*
X228733Y125347D01*
X228803Y125400D01*
X228874Y125450D01*
X228948Y125496D01*
X229024Y125540D01*
X229102Y125579D01*
X229182Y125615D01*
X229263Y125648D01*
X229345Y125677D01*
X229429Y125702D01*
X229514Y125723D01*
X229599Y125741D01*
X229686Y125754D01*
X229772Y125764D01*
X229860Y125770D01*
X229947Y125772D01*
X232543Y125772D01*
X237130Y129667D02*
X237130Y117983D01*
X237130Y125772D02*
X240376Y125772D01*
X240463Y125770D01*
X240551Y125764D01*
X240637Y125754D01*
X240724Y125741D01*
X240809Y125723D01*
X240894Y125702D01*
X240978Y125677D01*
X241060Y125648D01*
X241141Y125615D01*
X241221Y125579D01*
X241299Y125540D01*
X241375Y125496D01*
X241449Y125450D01*
X241520Y125400D01*
X241590Y125347D01*
X241657Y125291D01*
X241721Y125232D01*
X241783Y125171D01*
X241842Y125106D01*
X241898Y125039D01*
X241951Y124969D01*
X242001Y124898D01*
X242047Y124824D01*
X242091Y124748D01*
X242130Y124670D01*
X242166Y124590D01*
X242199Y124509D01*
X242228Y124427D01*
X242253Y124343D01*
X242274Y124258D01*
X242292Y124173D01*
X242305Y124086D01*
X242315Y124000D01*
X242321Y123912D01*
X242323Y123825D01*
X242323Y117983D01*
X247022Y117983D02*
X247022Y118632D01*
X247671Y118632D01*
X247671Y117983D01*
X247022Y117983D01*
X251919Y117983D02*
X251919Y125772D01*
X251594Y129018D02*
X251594Y129667D01*
X252243Y129667D01*
X252243Y129018D01*
X251594Y129018D01*
X256561Y123176D02*
X256561Y120579D01*
X256562Y123176D02*
X256564Y123277D01*
X256570Y123377D01*
X256580Y123477D01*
X256593Y123577D01*
X256611Y123676D01*
X256632Y123775D01*
X256657Y123872D01*
X256686Y123969D01*
X256719Y124064D01*
X256755Y124158D01*
X256795Y124250D01*
X256838Y124341D01*
X256885Y124430D01*
X256935Y124517D01*
X256989Y124603D01*
X257046Y124686D01*
X257106Y124766D01*
X257169Y124845D01*
X257236Y124921D01*
X257305Y124994D01*
X257377Y125064D01*
X257451Y125132D01*
X257528Y125197D01*
X257608Y125258D01*
X257690Y125317D01*
X257774Y125372D01*
X257860Y125424D01*
X257948Y125473D01*
X258038Y125518D01*
X258130Y125560D01*
X258223Y125598D01*
X258318Y125632D01*
X258413Y125663D01*
X258510Y125690D01*
X258608Y125713D01*
X258707Y125733D01*
X258807Y125748D01*
X258907Y125760D01*
X259007Y125768D01*
X259108Y125772D01*
X259208Y125772D01*
X259309Y125768D01*
X259409Y125760D01*
X259509Y125748D01*
X259609Y125733D01*
X259708Y125713D01*
X259806Y125690D01*
X259903Y125663D01*
X259998Y125632D01*
X260093Y125598D01*
X260186Y125560D01*
X260278Y125518D01*
X260368Y125473D01*
X260456Y125424D01*
X260542Y125372D01*
X260626Y125317D01*
X260708Y125258D01*
X260788Y125197D01*
X260865Y125132D01*
X260939Y125064D01*
X261011Y124994D01*
X261080Y124921D01*
X261147Y124845D01*
X261210Y124766D01*
X261270Y124686D01*
X261327Y124603D01*
X261381Y124517D01*
X261431Y124430D01*
X261478Y124341D01*
X261521Y124250D01*
X261561Y124158D01*
X261597Y124064D01*
X261630Y123969D01*
X261659Y123872D01*
X261684Y123775D01*
X261705Y123676D01*
X261723Y123577D01*
X261736Y123477D01*
X261746Y123377D01*
X261752Y123277D01*
X261754Y123176D01*
X261754Y120579D01*
X261752Y120478D01*
X261746Y120378D01*
X261736Y120278D01*
X261723Y120178D01*
X261705Y120079D01*
X261684Y119980D01*
X261659Y119883D01*
X261630Y119786D01*
X261597Y119691D01*
X261561Y119597D01*
X261521Y119505D01*
X261478Y119414D01*
X261431Y119325D01*
X261381Y119238D01*
X261327Y119152D01*
X261270Y119069D01*
X261210Y118989D01*
X261147Y118910D01*
X261080Y118834D01*
X261011Y118761D01*
X260939Y118691D01*
X260865Y118623D01*
X260788Y118558D01*
X260708Y118497D01*
X260626Y118438D01*
X260542Y118383D01*
X260456Y118331D01*
X260368Y118282D01*
X260278Y118237D01*
X260186Y118195D01*
X260093Y118157D01*
X259998Y118123D01*
X259903Y118092D01*
X259806Y118065D01*
X259708Y118042D01*
X259609Y118022D01*
X259509Y118007D01*
X259409Y117995D01*
X259309Y117987D01*
X259208Y117983D01*
X259108Y117983D01*
X259007Y117987D01*
X258907Y117995D01*
X258807Y118007D01*
X258707Y118022D01*
X258608Y118042D01*
X258510Y118065D01*
X258413Y118092D01*
X258318Y118123D01*
X258223Y118157D01*
X258130Y118195D01*
X258038Y118237D01*
X257948Y118282D01*
X257860Y118331D01*
X257774Y118383D01*
X257690Y118438D01*
X257608Y118497D01*
X257528Y118558D01*
X257451Y118623D01*
X257377Y118691D01*
X257305Y118761D01*
X257236Y118834D01*
X257169Y118910D01*
X257106Y118989D01*
X257046Y119069D01*
X256989Y119152D01*
X256935Y119238D01*
X256885Y119325D01*
X256838Y119414D01*
X256795Y119505D01*
X256755Y119597D01*
X256719Y119691D01*
X256686Y119786D01*
X256657Y119883D01*
X256632Y119980D01*
X256611Y120079D01*
X256593Y120178D01*
X256580Y120278D01*
X256570Y120378D01*
X256564Y120478D01*
X256562Y120579D01*
X143221Y105100D02*
X139326Y110617D01*
X143221Y105100D02*
X147115Y110617D01*
X143221Y105100D02*
X143221Y98933D01*
X151732Y95038D02*
X151732Y106722D01*
X154978Y106722D01*
X155065Y106720D01*
X155153Y106714D01*
X155239Y106704D01*
X155326Y106691D01*
X155411Y106673D01*
X155496Y106652D01*
X155580Y106627D01*
X155662Y106598D01*
X155743Y106565D01*
X155823Y106529D01*
X155901Y106490D01*
X155977Y106446D01*
X156051Y106400D01*
X156122Y106350D01*
X156192Y106297D01*
X156259Y106241D01*
X156323Y106182D01*
X156385Y106121D01*
X156444Y106056D01*
X156500Y105989D01*
X156553Y105919D01*
X156603Y105848D01*
X156649Y105774D01*
X156693Y105698D01*
X156732Y105620D01*
X156768Y105540D01*
X156801Y105459D01*
X156830Y105377D01*
X156855Y105293D01*
X156876Y105208D01*
X156894Y105123D01*
X156907Y105036D01*
X156917Y104950D01*
X156923Y104862D01*
X156925Y104775D01*
X156925Y100880D01*
X156923Y100793D01*
X156917Y100705D01*
X156907Y100619D01*
X156894Y100532D01*
X156876Y100447D01*
X156855Y100362D01*
X156830Y100278D01*
X156801Y100196D01*
X156768Y100115D01*
X156732Y100035D01*
X156693Y99957D01*
X156649Y99881D01*
X156603Y99807D01*
X156553Y99736D01*
X156500Y99666D01*
X156444Y99599D01*
X156385Y99535D01*
X156323Y99473D01*
X156259Y99414D01*
X156192Y99358D01*
X156122Y99305D01*
X156051Y99255D01*
X155977Y99209D01*
X155901Y99165D01*
X155823Y99126D01*
X155743Y99090D01*
X155662Y99057D01*
X155580Y99028D01*
X155496Y99003D01*
X155411Y98982D01*
X155326Y98964D01*
X155239Y98951D01*
X155153Y98941D01*
X155065Y98935D01*
X154978Y98933D01*
X151732Y98933D01*
X162553Y103477D02*
X165799Y102179D01*
X162553Y103476D02*
X162478Y103509D01*
X162404Y103545D01*
X162332Y103584D01*
X162262Y103627D01*
X162195Y103673D01*
X162129Y103723D01*
X162067Y103775D01*
X162006Y103831D01*
X161949Y103889D01*
X161894Y103950D01*
X161843Y104014D01*
X161795Y104080D01*
X161750Y104149D01*
X161708Y104219D01*
X161670Y104292D01*
X161635Y104366D01*
X161604Y104442D01*
X161577Y104519D01*
X161554Y104598D01*
X161534Y104677D01*
X161519Y104758D01*
X161507Y104839D01*
X161499Y104921D01*
X161495Y105002D01*
X161496Y105084D01*
X161500Y105166D01*
X161508Y105248D01*
X161520Y105329D01*
X161536Y105409D01*
X161556Y105489D01*
X161580Y105567D01*
X161608Y105644D01*
X161639Y105720D01*
X161674Y105794D01*
X161712Y105866D01*
X161754Y105937D01*
X161800Y106005D01*
X161848Y106071D01*
X161900Y106134D01*
X161955Y106195D01*
X162013Y106253D01*
X162073Y106309D01*
X162136Y106361D01*
X162202Y106410D01*
X162270Y106456D01*
X162340Y106498D01*
X162412Y106538D01*
X162486Y106573D01*
X162561Y106605D01*
X162638Y106633D01*
X162716Y106657D01*
X162796Y106678D01*
X162876Y106695D01*
X162957Y106707D01*
X163038Y106716D01*
X163120Y106721D01*
X163202Y106722D01*
X163379Y106718D01*
X163556Y106709D01*
X163733Y106695D01*
X163910Y106678D01*
X164085Y106656D01*
X164261Y106631D01*
X164435Y106600D01*
X164609Y106566D01*
X164782Y106528D01*
X164954Y106485D01*
X165125Y106438D01*
X165295Y106388D01*
X165464Y106333D01*
X165631Y106274D01*
X165796Y106211D01*
X165961Y106144D01*
X166123Y106073D01*
X165798Y102179D02*
X165873Y102146D01*
X165947Y102110D01*
X166019Y102071D01*
X166089Y102028D01*
X166156Y101982D01*
X166222Y101932D01*
X166284Y101880D01*
X166345Y101824D01*
X166402Y101766D01*
X166457Y101705D01*
X166508Y101641D01*
X166556Y101575D01*
X166601Y101506D01*
X166643Y101436D01*
X166681Y101363D01*
X166716Y101289D01*
X166747Y101213D01*
X166774Y101136D01*
X166797Y101057D01*
X166817Y100978D01*
X166832Y100897D01*
X166844Y100816D01*
X166852Y100734D01*
X166856Y100653D01*
X166855Y100571D01*
X166851Y100489D01*
X166843Y100407D01*
X166831Y100326D01*
X166815Y100246D01*
X166795Y100166D01*
X166771Y100088D01*
X166743Y100011D01*
X166712Y99935D01*
X166677Y99861D01*
X166639Y99789D01*
X166597Y99718D01*
X166551Y99650D01*
X166503Y99584D01*
X166451Y99521D01*
X166396Y99460D01*
X166338Y99402D01*
X166278Y99346D01*
X166215Y99294D01*
X166149Y99245D01*
X166081Y99199D01*
X166011Y99157D01*
X165939Y99117D01*
X165865Y99082D01*
X165790Y99050D01*
X165713Y99022D01*
X165635Y98998D01*
X165555Y98977D01*
X165475Y98960D01*
X165394Y98948D01*
X165313Y98939D01*
X165231Y98934D01*
X165149Y98933D01*
X165150Y98933D02*
X164890Y98940D01*
X164630Y98953D01*
X164370Y98972D01*
X164111Y98997D01*
X163852Y99029D01*
X163595Y99066D01*
X163338Y99110D01*
X163082Y99159D01*
X162828Y99215D01*
X162575Y99276D01*
X162324Y99344D01*
X162074Y99418D01*
X161826Y99497D01*
X161580Y99582D01*
X171415Y98933D02*
X171415Y106722D01*
X171090Y109968D02*
X171090Y110617D01*
X171739Y110617D01*
X171739Y109968D01*
X171090Y109968D01*
X176207Y110617D02*
X176207Y100880D01*
X176209Y100793D01*
X176215Y100705D01*
X176225Y100619D01*
X176238Y100532D01*
X176256Y100447D01*
X176277Y100362D01*
X176302Y100278D01*
X176331Y100196D01*
X176364Y100115D01*
X176400Y100035D01*
X176439Y99957D01*
X176483Y99881D01*
X176529Y99807D01*
X176579Y99736D01*
X176632Y99666D01*
X176688Y99599D01*
X176747Y99535D01*
X176809Y99473D01*
X176873Y99414D01*
X176940Y99358D01*
X177010Y99305D01*
X177081Y99255D01*
X177155Y99209D01*
X177231Y99165D01*
X177309Y99126D01*
X177389Y99090D01*
X177470Y99057D01*
X177552Y99028D01*
X177636Y99003D01*
X177721Y98982D01*
X177806Y98964D01*
X177893Y98951D01*
X177979Y98941D01*
X178067Y98935D01*
X178154Y98933D01*
X184366Y103477D02*
X187287Y103477D01*
X184366Y103477D02*
X184272Y103475D01*
X184178Y103469D01*
X184085Y103460D01*
X183992Y103446D01*
X183900Y103429D01*
X183808Y103407D01*
X183718Y103383D01*
X183628Y103354D01*
X183540Y103322D01*
X183453Y103286D01*
X183368Y103246D01*
X183285Y103203D01*
X183203Y103157D01*
X183123Y103107D01*
X183046Y103054D01*
X182971Y102998D01*
X182898Y102939D01*
X182827Y102877D01*
X182759Y102812D01*
X182694Y102744D01*
X182632Y102673D01*
X182573Y102600D01*
X182517Y102525D01*
X182464Y102448D01*
X182414Y102368D01*
X182368Y102286D01*
X182325Y102203D01*
X182285Y102118D01*
X182249Y102031D01*
X182217Y101943D01*
X182188Y101853D01*
X182164Y101763D01*
X182142Y101671D01*
X182125Y101579D01*
X182111Y101486D01*
X182102Y101393D01*
X182096Y101299D01*
X182094Y101205D01*
X182096Y101111D01*
X182102Y101017D01*
X182111Y100924D01*
X182125Y100831D01*
X182142Y100739D01*
X182164Y100647D01*
X182188Y100557D01*
X182217Y100467D01*
X182249Y100379D01*
X182285Y100292D01*
X182325Y100207D01*
X182368Y100124D01*
X182414Y100042D01*
X182464Y99962D01*
X182517Y99885D01*
X182573Y99810D01*
X182632Y99737D01*
X182694Y99666D01*
X182759Y99598D01*
X182827Y99533D01*
X182898Y99471D01*
X182971Y99412D01*
X183046Y99356D01*
X183123Y99303D01*
X183203Y99253D01*
X183285Y99207D01*
X183368Y99164D01*
X183453Y99124D01*
X183540Y99088D01*
X183628Y99056D01*
X183718Y99027D01*
X183808Y99003D01*
X183900Y98981D01*
X183992Y98964D01*
X184085Y98950D01*
X184178Y98941D01*
X184272Y98935D01*
X184366Y98933D01*
X187287Y98933D01*
X187287Y104775D01*
X187285Y104862D01*
X187279Y104950D01*
X187269Y105036D01*
X187256Y105123D01*
X187238Y105208D01*
X187217Y105293D01*
X187192Y105377D01*
X187163Y105459D01*
X187130Y105540D01*
X187094Y105620D01*
X187055Y105698D01*
X187011Y105774D01*
X186965Y105848D01*
X186915Y105919D01*
X186862Y105989D01*
X186806Y106056D01*
X186747Y106120D01*
X186685Y106182D01*
X186621Y106241D01*
X186554Y106297D01*
X186484Y106350D01*
X186413Y106400D01*
X186339Y106446D01*
X186263Y106490D01*
X186185Y106529D01*
X186105Y106565D01*
X186024Y106598D01*
X185942Y106627D01*
X185858Y106652D01*
X185773Y106673D01*
X185688Y106691D01*
X185601Y106704D01*
X185515Y106714D01*
X185427Y106720D01*
X185340Y106722D01*
X182743Y106722D01*
X192821Y106722D02*
X192821Y98933D01*
X192821Y106722D02*
X196067Y106722D01*
X196154Y106720D01*
X196242Y106714D01*
X196328Y106704D01*
X196415Y106691D01*
X196500Y106673D01*
X196585Y106652D01*
X196669Y106627D01*
X196751Y106598D01*
X196832Y106565D01*
X196912Y106529D01*
X196990Y106490D01*
X197066Y106446D01*
X197140Y106400D01*
X197211Y106350D01*
X197281Y106297D01*
X197348Y106241D01*
X197412Y106182D01*
X197474Y106121D01*
X197533Y106056D01*
X197589Y105989D01*
X197642Y105919D01*
X197692Y105848D01*
X197738Y105774D01*
X197782Y105698D01*
X197821Y105620D01*
X197857Y105540D01*
X197890Y105459D01*
X197919Y105377D01*
X197944Y105293D01*
X197965Y105208D01*
X197983Y105123D01*
X197996Y105036D01*
X198006Y104950D01*
X198012Y104862D01*
X198014Y104775D01*
X198014Y98933D01*
X202141Y106722D02*
X206036Y106722D01*
X203439Y110617D02*
X203439Y100880D01*
X203440Y100880D02*
X203442Y100793D01*
X203448Y100705D01*
X203458Y100619D01*
X203471Y100532D01*
X203489Y100447D01*
X203510Y100362D01*
X203535Y100278D01*
X203564Y100196D01*
X203597Y100115D01*
X203633Y100035D01*
X203672Y99957D01*
X203716Y99881D01*
X203762Y99807D01*
X203812Y99736D01*
X203865Y99666D01*
X203921Y99599D01*
X203980Y99535D01*
X204042Y99473D01*
X204106Y99414D01*
X204173Y99358D01*
X204243Y99305D01*
X204314Y99255D01*
X204388Y99209D01*
X204464Y99165D01*
X204542Y99126D01*
X204622Y99090D01*
X204703Y99057D01*
X204785Y99028D01*
X204869Y99003D01*
X204954Y98982D01*
X205039Y98964D01*
X205126Y98951D01*
X205212Y98941D01*
X205300Y98935D01*
X205387Y98933D01*
X206036Y98933D01*
X210277Y98933D02*
X210277Y106722D01*
X209952Y109968D02*
X209952Y110617D01*
X210601Y110617D01*
X210601Y109968D01*
X209952Y109968D01*
X214481Y98933D02*
X215130Y98933D01*
X214481Y98933D02*
X214481Y99582D01*
X215130Y99582D01*
X215130Y98933D01*
X214156Y96337D01*
X226194Y98933D02*
X226194Y110617D01*
X230089Y104126D01*
X233983Y110617D01*
X233983Y98933D01*
X240376Y98933D02*
X240376Y110617D01*
X239077Y98933D02*
X241674Y98933D01*
X241674Y110617D02*
X239077Y110617D01*
X171958Y64601D02*
X163322Y64601D01*
X167640Y60283D02*
X167640Y68919D01*
D12*
X147511Y306070D02*
X147511Y344170D01*
X233490Y344170D01*
X233490Y306070D01*
X147511Y306070D01*
D13*
X165100Y53340D02*
X215900Y53340D01*
X215900Y40640D01*
X215900Y27940D01*
X165100Y27940D01*
X165100Y40640D01*
X165100Y53340D01*
X215900Y40640D02*
X218440Y40640D01*
X165100Y40640D02*
X162560Y40640D01*
D12*
X174625Y42545D02*
X177800Y45085D01*
X177800Y33655D01*
X174625Y33655D02*
X180975Y33655D01*
X186055Y39370D02*
X186058Y39595D01*
X186066Y39820D01*
X186079Y40044D01*
X186098Y40268D01*
X186122Y40492D01*
X186151Y40715D01*
X186186Y40937D01*
X186226Y41158D01*
X186272Y41378D01*
X186322Y41597D01*
X186378Y41815D01*
X186439Y42032D01*
X186505Y42247D01*
X186576Y42460D01*
X186653Y42671D01*
X186734Y42881D01*
X186820Y43089D01*
X186911Y43294D01*
X187007Y43497D01*
X187007Y43498D02*
X187039Y43586D01*
X187075Y43673D01*
X187114Y43759D01*
X187157Y43843D01*
X187203Y43925D01*
X187252Y44005D01*
X187304Y44083D01*
X187360Y44159D01*
X187418Y44233D01*
X187480Y44304D01*
X187544Y44373D01*
X187611Y44439D01*
X187680Y44502D01*
X187752Y44563D01*
X187826Y44621D01*
X187903Y44675D01*
X187981Y44727D01*
X188062Y44775D01*
X188144Y44820D01*
X188229Y44862D01*
X188315Y44900D01*
X188402Y44935D01*
X188490Y44967D01*
X188580Y44994D01*
X188671Y45019D01*
X188763Y45039D01*
X188855Y45056D01*
X188949Y45069D01*
X189042Y45078D01*
X189136Y45084D01*
X189230Y45086D01*
X189324Y45084D01*
X189418Y45078D01*
X189511Y45069D01*
X189605Y45056D01*
X189697Y45039D01*
X189789Y45019D01*
X189880Y44994D01*
X189970Y44967D01*
X190058Y44935D01*
X190145Y44900D01*
X190231Y44862D01*
X190316Y44820D01*
X190398Y44775D01*
X190479Y44727D01*
X190557Y44675D01*
X190634Y44621D01*
X190708Y44563D01*
X190780Y44502D01*
X190849Y44439D01*
X190916Y44373D01*
X190980Y44304D01*
X191042Y44233D01*
X191100Y44159D01*
X191156Y44083D01*
X191208Y44005D01*
X191257Y43925D01*
X191303Y43843D01*
X191346Y43759D01*
X191385Y43673D01*
X191421Y43586D01*
X191453Y43498D01*
X191453Y43497D02*
X191549Y43294D01*
X191640Y43089D01*
X191726Y42881D01*
X191807Y42671D01*
X191884Y42460D01*
X191955Y42247D01*
X192021Y42032D01*
X192082Y41815D01*
X192138Y41597D01*
X192188Y41378D01*
X192234Y41158D01*
X192274Y40937D01*
X192309Y40715D01*
X192338Y40492D01*
X192362Y40268D01*
X192381Y40044D01*
X192394Y39820D01*
X192402Y39595D01*
X192405Y39370D01*
X186055Y39370D02*
X186058Y39145D01*
X186066Y38920D01*
X186079Y38696D01*
X186098Y38472D01*
X186122Y38248D01*
X186151Y38025D01*
X186186Y37803D01*
X186226Y37582D01*
X186272Y37362D01*
X186322Y37143D01*
X186378Y36925D01*
X186439Y36708D01*
X186505Y36493D01*
X186576Y36280D01*
X186653Y36069D01*
X186734Y35859D01*
X186820Y35651D01*
X186911Y35446D01*
X187007Y35243D01*
X187039Y35155D01*
X187075Y35068D01*
X187114Y34982D01*
X187157Y34898D01*
X187203Y34816D01*
X187252Y34736D01*
X187304Y34658D01*
X187360Y34582D01*
X187418Y34508D01*
X187480Y34437D01*
X187544Y34368D01*
X187611Y34302D01*
X187680Y34239D01*
X187752Y34178D01*
X187826Y34120D01*
X187903Y34066D01*
X187981Y34014D01*
X188062Y33966D01*
X188144Y33921D01*
X188229Y33879D01*
X188315Y33841D01*
X188402Y33806D01*
X188490Y33774D01*
X188580Y33747D01*
X188671Y33722D01*
X188763Y33702D01*
X188855Y33685D01*
X188949Y33672D01*
X189042Y33663D01*
X189136Y33657D01*
X189230Y33655D01*
X191453Y35243D02*
X191549Y35446D01*
X191640Y35651D01*
X191726Y35859D01*
X191807Y36069D01*
X191884Y36280D01*
X191955Y36493D01*
X192021Y36708D01*
X192082Y36925D01*
X192138Y37143D01*
X192188Y37362D01*
X192234Y37582D01*
X192274Y37803D01*
X192309Y38025D01*
X192338Y38248D01*
X192362Y38472D01*
X192381Y38696D01*
X192394Y38920D01*
X192402Y39145D01*
X192405Y39370D01*
X191453Y35243D02*
X191421Y35155D01*
X191385Y35068D01*
X191346Y34982D01*
X191303Y34898D01*
X191257Y34816D01*
X191208Y34736D01*
X191156Y34658D01*
X191100Y34582D01*
X191042Y34508D01*
X190980Y34437D01*
X190916Y34368D01*
X190849Y34302D01*
X190780Y34239D01*
X190708Y34178D01*
X190634Y34120D01*
X190557Y34066D01*
X190479Y34014D01*
X190398Y33966D01*
X190316Y33921D01*
X190231Y33879D01*
X190145Y33841D01*
X190058Y33806D01*
X189970Y33774D01*
X189880Y33747D01*
X189789Y33722D01*
X189697Y33702D01*
X189605Y33685D01*
X189511Y33672D01*
X189418Y33663D01*
X189324Y33657D01*
X189230Y33655D01*
X186690Y36195D02*
X191770Y42545D01*
X197485Y39370D02*
X197488Y39595D01*
X197496Y39820D01*
X197509Y40044D01*
X197528Y40268D01*
X197552Y40492D01*
X197581Y40715D01*
X197616Y40937D01*
X197656Y41158D01*
X197702Y41378D01*
X197752Y41597D01*
X197808Y41815D01*
X197869Y42032D01*
X197935Y42247D01*
X198006Y42460D01*
X198083Y42671D01*
X198164Y42881D01*
X198250Y43089D01*
X198341Y43294D01*
X198437Y43497D01*
X198437Y43498D02*
X198469Y43586D01*
X198505Y43673D01*
X198544Y43759D01*
X198587Y43843D01*
X198633Y43925D01*
X198682Y44005D01*
X198734Y44083D01*
X198790Y44159D01*
X198848Y44233D01*
X198910Y44304D01*
X198974Y44373D01*
X199041Y44439D01*
X199110Y44502D01*
X199182Y44563D01*
X199256Y44621D01*
X199333Y44675D01*
X199411Y44727D01*
X199492Y44775D01*
X199574Y44820D01*
X199659Y44862D01*
X199745Y44900D01*
X199832Y44935D01*
X199920Y44967D01*
X200010Y44994D01*
X200101Y45019D01*
X200193Y45039D01*
X200285Y45056D01*
X200379Y45069D01*
X200472Y45078D01*
X200566Y45084D01*
X200660Y45086D01*
X200754Y45084D01*
X200848Y45078D01*
X200941Y45069D01*
X201035Y45056D01*
X201127Y45039D01*
X201219Y45019D01*
X201310Y44994D01*
X201400Y44967D01*
X201488Y44935D01*
X201575Y44900D01*
X201661Y44862D01*
X201746Y44820D01*
X201828Y44775D01*
X201909Y44727D01*
X201987Y44675D01*
X202064Y44621D01*
X202138Y44563D01*
X202210Y44502D01*
X202279Y44439D01*
X202346Y44373D01*
X202410Y44304D01*
X202472Y44233D01*
X202530Y44159D01*
X202586Y44083D01*
X202638Y44005D01*
X202687Y43925D01*
X202733Y43843D01*
X202776Y43759D01*
X202815Y43673D01*
X202851Y43586D01*
X202883Y43498D01*
X202883Y43497D02*
X202979Y43294D01*
X203070Y43089D01*
X203156Y42881D01*
X203237Y42671D01*
X203314Y42460D01*
X203385Y42247D01*
X203451Y42032D01*
X203512Y41815D01*
X203568Y41597D01*
X203618Y41378D01*
X203664Y41158D01*
X203704Y40937D01*
X203739Y40715D01*
X203768Y40492D01*
X203792Y40268D01*
X203811Y40044D01*
X203824Y39820D01*
X203832Y39595D01*
X203835Y39370D01*
X197485Y39370D02*
X197488Y39145D01*
X197496Y38920D01*
X197509Y38696D01*
X197528Y38472D01*
X197552Y38248D01*
X197581Y38025D01*
X197616Y37803D01*
X197656Y37582D01*
X197702Y37362D01*
X197752Y37143D01*
X197808Y36925D01*
X197869Y36708D01*
X197935Y36493D01*
X198006Y36280D01*
X198083Y36069D01*
X198164Y35859D01*
X198250Y35651D01*
X198341Y35446D01*
X198437Y35243D01*
X198469Y35155D01*
X198505Y35068D01*
X198544Y34982D01*
X198587Y34898D01*
X198633Y34816D01*
X198682Y34736D01*
X198734Y34658D01*
X198790Y34582D01*
X198848Y34508D01*
X198910Y34437D01*
X198974Y34368D01*
X199041Y34302D01*
X199110Y34239D01*
X199182Y34178D01*
X199256Y34120D01*
X199333Y34066D01*
X199411Y34014D01*
X199492Y33966D01*
X199574Y33921D01*
X199659Y33879D01*
X199745Y33841D01*
X199832Y33806D01*
X199920Y33774D01*
X200010Y33747D01*
X200101Y33722D01*
X200193Y33702D01*
X200285Y33685D01*
X200379Y33672D01*
X200472Y33663D01*
X200566Y33657D01*
X200660Y33655D01*
X202883Y35243D02*
X202979Y35446D01*
X203070Y35651D01*
X203156Y35859D01*
X203237Y36069D01*
X203314Y36280D01*
X203385Y36493D01*
X203451Y36708D01*
X203512Y36925D01*
X203568Y37143D01*
X203618Y37362D01*
X203664Y37582D01*
X203704Y37803D01*
X203739Y38025D01*
X203768Y38248D01*
X203792Y38472D01*
X203811Y38696D01*
X203824Y38920D01*
X203832Y39145D01*
X203835Y39370D01*
X202883Y35243D02*
X202851Y35155D01*
X202815Y35068D01*
X202776Y34982D01*
X202733Y34898D01*
X202687Y34816D01*
X202638Y34736D01*
X202586Y34658D01*
X202530Y34582D01*
X202472Y34508D01*
X202410Y34437D01*
X202346Y34368D01*
X202279Y34302D01*
X202210Y34239D01*
X202138Y34178D01*
X202064Y34120D01*
X201987Y34066D01*
X201909Y34014D01*
X201828Y33966D01*
X201746Y33921D01*
X201661Y33879D01*
X201575Y33841D01*
X201488Y33806D01*
X201400Y33774D01*
X201310Y33747D01*
X201219Y33722D01*
X201127Y33702D01*
X201035Y33685D01*
X200941Y33672D01*
X200848Y33663D01*
X200754Y33657D01*
X200660Y33655D01*
X198120Y36195D02*
X203200Y42545D01*
M02*
