G04 EAGLE Gerber X2 export*
%TF.Part,Single*%
%TF.FileFunction,Soldermask,Top,1*%
%TF.FilePolarity,Negative*%
%TF.GenerationSoftware,Autodesk,EAGLE,8.7.0*%
%TF.CreationDate,2018-06-27T00:28:53Z*%
G75*
%MOMM*%
%FSLAX34Y34*%
%LPD*%
%AMOC8*
5,1,8,0,0,1.08239X$1,22.5*%
G01*
%ADD10C,1.778000*%
%ADD11C,0.254000*%
%ADD12C,2.006600*%
%ADD13C,1.477000*%
%ADD14C,0.762000*%

G36*
X228667Y35643D02*
X228667Y35643D01*
X228742Y35640D01*
X229718Y35742D01*
X229766Y35756D01*
X229856Y35772D01*
X230785Y36088D01*
X230829Y36113D01*
X230914Y36149D01*
X231749Y36663D01*
X231786Y36697D01*
X231861Y36751D01*
X232561Y37439D01*
X232590Y37480D01*
X232650Y37549D01*
X233179Y38376D01*
X233198Y38422D01*
X233242Y38503D01*
X233574Y39426D01*
X233582Y39476D01*
X233607Y39565D01*
X233725Y40539D01*
X233722Y40589D01*
X233726Y40675D01*
X233631Y41677D01*
X233617Y41726D01*
X233601Y41816D01*
X233285Y42772D01*
X233261Y42817D01*
X233226Y42901D01*
X232704Y43762D01*
X232671Y43800D01*
X232618Y43875D01*
X231918Y44599D01*
X231877Y44628D01*
X231808Y44689D01*
X230965Y45239D01*
X230919Y45259D01*
X230838Y45303D01*
X229894Y45651D01*
X229844Y45660D01*
X229756Y45685D01*
X228758Y45815D01*
X228715Y45813D01*
X228589Y45814D01*
X227578Y45675D01*
X227530Y45659D01*
X227440Y45640D01*
X226485Y45278D01*
X226442Y45252D01*
X226358Y45214D01*
X225508Y44649D01*
X225471Y44614D01*
X225399Y44557D01*
X224695Y43818D01*
X224667Y43775D01*
X224609Y43704D01*
X224088Y42826D01*
X224070Y42779D01*
X224029Y42697D01*
X223716Y41725D01*
X223709Y41675D01*
X223688Y41586D01*
X223599Y40568D01*
X223604Y40518D01*
X223603Y40427D01*
X223734Y39463D01*
X223750Y39415D01*
X223769Y39326D01*
X224111Y38415D01*
X224137Y38372D01*
X224176Y38289D01*
X224713Y37477D01*
X224748Y37441D01*
X224804Y37368D01*
X225508Y36696D01*
X225550Y36669D01*
X225621Y36610D01*
X226457Y36112D01*
X226504Y36094D01*
X226586Y36054D01*
X227512Y35754D01*
X227562Y35747D01*
X227651Y35725D01*
X228620Y35639D01*
X228667Y35643D01*
G37*
G36*
X152391Y35567D02*
X152391Y35567D01*
X152466Y35564D01*
X153442Y35666D01*
X153490Y35680D01*
X153580Y35696D01*
X154509Y36012D01*
X154553Y36037D01*
X154638Y36073D01*
X155473Y36587D01*
X155510Y36621D01*
X155585Y36675D01*
X156285Y37363D01*
X156314Y37404D01*
X156374Y37473D01*
X156903Y38300D01*
X156922Y38346D01*
X156966Y38427D01*
X157298Y39350D01*
X157306Y39400D01*
X157331Y39489D01*
X157449Y40463D01*
X157446Y40513D01*
X157450Y40599D01*
X157355Y41601D01*
X157341Y41650D01*
X157325Y41740D01*
X157009Y42696D01*
X156985Y42741D01*
X156950Y42825D01*
X156428Y43686D01*
X156395Y43724D01*
X156342Y43799D01*
X155642Y44523D01*
X155601Y44552D01*
X155532Y44613D01*
X154689Y45163D01*
X154643Y45183D01*
X154562Y45227D01*
X153618Y45575D01*
X153568Y45584D01*
X153480Y45609D01*
X152482Y45739D01*
X152439Y45737D01*
X152313Y45738D01*
X151302Y45599D01*
X151254Y45583D01*
X151164Y45564D01*
X150209Y45202D01*
X150166Y45176D01*
X150082Y45138D01*
X149232Y44573D01*
X149195Y44538D01*
X149123Y44481D01*
X148419Y43742D01*
X148391Y43699D01*
X148333Y43628D01*
X147812Y42750D01*
X147794Y42703D01*
X147753Y42621D01*
X147440Y41649D01*
X147433Y41599D01*
X147412Y41510D01*
X147323Y40492D01*
X147328Y40442D01*
X147327Y40351D01*
X147458Y39387D01*
X147474Y39339D01*
X147493Y39250D01*
X147835Y38339D01*
X147861Y38296D01*
X147900Y38213D01*
X148437Y37401D01*
X148472Y37365D01*
X148528Y37292D01*
X149232Y36620D01*
X149274Y36593D01*
X149345Y36534D01*
X150181Y36036D01*
X150228Y36018D01*
X150310Y35978D01*
X151236Y35678D01*
X151286Y35671D01*
X151375Y35649D01*
X152344Y35563D01*
X152391Y35567D01*
G37*
D10*
X190500Y360680D03*
D11*
X59436Y250444D02*
X58420Y251460D01*
X59436Y250444D02*
X59436Y249936D01*
X68326Y241300D01*
X68199Y230124D01*
X58674Y220599D01*
X58801Y185674D01*
X72644Y171704D01*
X72644Y153416D01*
X73152Y152908D01*
X91821Y238125D02*
X91440Y238760D01*
X91821Y238125D02*
X117094Y238125D01*
X150495Y209931D01*
X150495Y159131D01*
X141224Y152400D01*
X127000Y152400D01*
X140716Y162052D02*
X142240Y162560D01*
X140716Y162052D02*
X125349Y161925D01*
X117475Y153924D01*
X117475Y144653D01*
X84074Y111125D01*
X44450Y111125D01*
X31750Y123825D01*
X31750Y206375D01*
X55626Y230251D01*
X59436Y230124D01*
X48260Y213360D02*
X36576Y201676D01*
X36449Y125349D01*
X45974Y115951D01*
X82296Y115824D01*
X112776Y146304D01*
X112776Y155575D01*
X139700Y182880D01*
X139700Y190500D01*
X127000Y220980D02*
X93980Y220980D01*
X119380Y208280D02*
X127000Y220980D01*
X138176Y209804D01*
X138049Y200025D01*
X107950Y169926D01*
X107950Y147701D01*
X84074Y123825D01*
X63627Y123825D01*
X61976Y120650D01*
X47625Y120650D01*
X41275Y127000D01*
X41275Y146050D01*
X47625Y152400D01*
X47752Y174244D01*
X49276Y129032D02*
X49784Y127000D01*
X49276Y129032D02*
X49276Y146050D01*
X95250Y146050D01*
X99568Y150876D01*
X100076Y151003D01*
X100076Y168275D01*
X100076Y168402D01*
X99822Y169164D01*
X68199Y200152D02*
X66040Y200660D01*
X68199Y200152D02*
X100076Y168275D01*
X100076Y168402D02*
X129921Y203454D01*
X302768Y260350D02*
X305054Y261112D01*
X302768Y260350D02*
X293624Y260350D01*
X263652Y230124D01*
X263525Y200025D01*
X269367Y193929D01*
X263652Y225425D02*
X249174Y225425D01*
X227330Y211201D01*
X227330Y158750D01*
X263525Y130175D01*
X286258Y130175D01*
X288798Y129794D01*
X288798Y130302D01*
X303276Y115824D01*
X322199Y115951D01*
X341249Y134874D01*
X341376Y169926D01*
X340868Y170434D01*
X333248Y177800D01*
X333248Y190246D01*
X329184Y251460D02*
X330454Y253492D01*
X329184Y251460D02*
X304292Y226568D01*
X310388Y232410D02*
X294894Y247650D01*
X287528Y247650D01*
X268224Y228600D01*
X268224Y204978D01*
X283972Y188976D01*
X283972Y158750D01*
X287528Y155448D01*
X301752Y155448D01*
X309372Y147574D01*
X317754Y147574D01*
X247904Y174752D02*
X246126Y175514D01*
X247904Y174752D02*
X267970Y174752D01*
X283972Y158750D01*
X250825Y216789D02*
X250952Y218186D01*
X250825Y216789D02*
X250825Y203200D01*
X276860Y177038D01*
X257810Y195961D02*
X234696Y177800D01*
X234696Y160274D01*
X257048Y143002D01*
X282448Y143002D01*
X290576Y134874D01*
X321056Y134874D01*
X320675Y134493D01*
X320675Y123825D01*
X320929Y133604D02*
X336550Y149606D01*
X336550Y164846D01*
X327406Y233172D02*
X322834Y233172D01*
X327406Y233172D02*
X346075Y214376D01*
X346075Y133350D01*
X320548Y108204D01*
X305054Y108204D01*
X276860Y150876D02*
X260096Y150876D01*
X276860Y150876D02*
X278130Y152654D01*
X280162Y152400D01*
X284226Y152400D01*
X295402Y141224D01*
X322326Y141478D01*
X326898Y146050D01*
X327152Y167894D01*
X277622Y217678D01*
X277876Y227076D01*
X292100Y241554D01*
X336550Y212725D02*
X337820Y213360D01*
X336550Y212725D02*
X309626Y185928D01*
D12*
X177800Y78740D03*
X203200Y78740D03*
D13*
X170180Y325120D03*
X190500Y325120D03*
X210820Y325120D03*
D14*
X251460Y218440D03*
X334010Y165100D03*
X276860Y175260D03*
X320040Y123190D03*
X304800Y106680D03*
X322580Y233680D03*
X259080Y149860D03*
X337820Y213360D03*
X292100Y241300D03*
X289560Y205740D03*
X312420Y182880D03*
X275590Y224790D03*
X278130Y153670D03*
X246380Y175260D03*
X302260Y154940D03*
X318770Y148590D03*
X304800Y226060D03*
X330200Y254000D03*
X287020Y129540D03*
X269240Y194310D03*
X304800Y261620D03*
X332740Y190500D03*
X127000Y152400D03*
X91440Y238760D03*
X129540Y203200D03*
X49530Y144780D03*
X66040Y200660D03*
X99060Y149860D03*
X50800Y127000D03*
X59690Y231140D03*
X142240Y162560D03*
X73660Y152400D03*
X58420Y251460D03*
X93980Y220980D03*
X48260Y175260D03*
X63500Y123190D03*
X119380Y208280D03*
X48260Y213360D03*
X139700Y190500D03*
M02*
